<?xml version="1.0" encoding="UTF-8"?>
<!DOCTYPE svg PUBLIC "-//W3C//DTD SVG 1.1//EN" "http://www.w3.org/Graphics/SVG/1.1/DTD/svg11.dtd">
<svg xmlns="http://www.w3.org/2000/svg" version="1.1" width="1276px" height="1276px" style="shape-rendering:geometricPrecision; text-rendering:geometricPrecision; image-rendering:optimizeQuality; fill-rule:evenodd; clip-rule:evenodd" xmlns:xlink="http://www.w3.org/1999/xlink">
<g><path style="opacity:1" fill="#fbfbfd" d="M 835.5,208.5 C 834.766,207.292 834.433,205.959 834.5,204.5C 834.81,201.287 834.477,198.287 833.5,195.5C 833.5,156.5 833.5,117.5 833.5,78.5C 834.833,75.8333 834.833,73.1667 833.5,70.5C 817.2,68.5146 800.534,67.8479 783.5,68.5C 782.833,68.5 782.5,68.8333 782.5,69.5C 782.5,106.833 782.5,144.167 782.5,181.5C 782.5,184.167 782.5,186.833 782.5,189.5C 781.85,189.804 781.183,190.137 780.5,190.5C 773.25,188.415 765.916,186.749 758.5,185.5C 758.5,184.833 758.167,184.5 757.5,184.5C 757.5,184.167 757.5,183.833 757.5,183.5C 757.5,182.833 757.167,182.5 756.5,182.5C 756.5,181.833 756.167,181.5 755.5,181.5C 755.5,181.167 755.5,180.833 755.5,180.5C 755.5,179.833 755.167,179.5 754.5,179.5C 754.672,178.508 754.338,177.842 753.5,177.5C 753.5,176.833 753.167,176.5 752.5,176.5C 752.5,176.167 752.5,175.833 752.5,175.5C 752.5,174.833 752.167,174.5 751.5,174.5C 751.5,174.167 751.5,173.833 751.5,173.5C 751.5,172.833 751.167,172.5 750.5,172.5C 749.833,172.5 749.5,172.167 749.5,171.5C 750.833,171.167 750.833,170.833 749.5,170.5C 749.5,170.167 749.5,169.833 749.5,169.5C 749.5,168.833 749.167,168.5 748.5,168.5C 748.5,168.167 748.5,167.833 748.5,167.5C 748.5,167.167 748.5,166.833 748.5,166.5C 748.5,165.833 748.167,165.5 747.5,165.5C 747.5,165.167 747.5,164.833 747.5,164.5C 747.167,163.833 746.833,163.167 746.5,162.5C 746.5,161.833 746.167,161.5 745.5,161.5C 745.672,160.508 745.338,159.842 744.5,159.5C 744.5,159.167 744.5,158.833 744.5,158.5C 744.5,157.833 744.167,157.5 743.5,157.5C 743.672,156.508 743.338,155.842 742.5,155.5C 742.672,154.508 742.338,153.842 741.5,153.5C 741.5,153.167 741.5,152.833 741.5,152.5C 741.5,151.833 741.167,151.5 740.5,151.5C 740.5,151.167 740.5,150.833 740.5,150.5C 740.5,149.833 740.167,149.5 739.5,149.5C 739.5,149.167 739.5,148.833 739.5,148.5C 739.5,147.833 739.167,147.5 738.5,147.5C 738.5,147.167 738.5,146.833 738.5,146.5C 738.5,146.167 738.5,145.833 738.5,145.5C 738.5,144.833 738.167,144.5 737.5,144.5C 737.672,143.508 737.338,142.842 736.5,142.5C 736.672,141.508 736.338,140.842 735.5,140.5C 735.672,139.508 735.338,138.842 734.5,138.5C 734.5,138.167 734.5,137.833 734.5,137.5C 734.5,136.833 734.167,136.5 733.5,136.5C 733.5,136.167 733.5,135.833 733.5,135.5C 733.5,134.833 733.167,134.5 732.5,134.5C 732.672,133.508 732.338,132.842 731.5,132.5C 731.5,132.167 731.5,131.833 731.5,131.5C 731.5,130.833 731.167,130.5 730.5,130.5C 730.5,130.167 730.5,129.833 730.5,129.5C 730.5,128.833 730.167,128.5 729.5,128.5C 729.5,128.167 729.5,127.833 729.5,127.5C 729.5,126.833 729.167,126.5 728.5,126.5C 728.5,126.167 728.5,125.833 728.5,125.5C 728.672,124.508 728.338,123.842 727.5,123.5C 727.672,122.508 727.338,121.842 726.5,121.5C 726.443,120.391 726.11,119.391 725.5,118.5C 725.5,117.833 725.167,117.5 724.5,117.5C 724.5,117.167 724.5,116.833 724.5,116.5C 724.5,115.833 724.167,115.5 723.5,115.5C 723.5,115.167 723.5,114.833 723.5,114.5C 723.5,113.833 723.167,113.5 722.5,113.5C 722.5,113.167 722.5,112.833 722.5,112.5C 722.5,111.833 722.167,111.5 721.5,111.5C 721.5,111.167 721.5,110.833 721.5,110.5C 721.5,109.833 721.167,109.5 720.5,109.5C 720.5,109.167 720.5,108.833 720.5,108.5C 720.5,107.833 720.167,107.5 719.5,107.5C 719.5,107.167 719.5,106.833 719.5,106.5C 719.5,105.833 719.167,105.5 718.5,105.5C 718.5,105.167 718.5,104.833 718.5,104.5C 718.5,103.833 718.167,103.5 717.5,103.5C 717.5,103.167 717.5,102.833 717.5,102.5C 717.672,101.508 717.338,100.842 716.5,100.5C 716.5,100.167 716.5,99.8333 716.5,99.5C 716.5,98.8333 716.167,98.5 715.5,98.5C 715.5,98.1667 715.5,97.8333 715.5,97.5C 715.5,96.8333 715.167,96.5 714.5,96.5C 714.5,96.1667 714.5,95.8333 714.5,95.5C 714.5,94.8333 714.167,94.5 713.5,94.5C 713.5,94.1667 713.5,93.8333 713.5,93.5C 713.5,92.8333 713.167,92.5 712.5,92.5C 712.5,92.1667 712.5,91.8333 712.5,91.5C 712.5,90.8333 712.167,90.5 711.5,90.5C 711.5,90.1667 711.5,89.8333 711.5,89.5C 711.5,88.8333 711.167,88.5 710.5,88.5C 710.5,88.1667 710.5,87.8333 710.5,87.5C 710.5,86.8333 710.167,86.5 709.5,86.5C 709.5,86.1667 709.5,85.8333 709.5,85.5C 709.672,84.5084 709.338,83.8417 708.5,83.5C 708.672,82.5084 708.338,81.8417 707.5,81.5C 707.5,81.1667 707.5,80.8333 707.5,80.5C 707.167,79.8333 706.833,79.1667 706.5,78.5C 706.5,77.8333 706.167,77.5 705.5,77.5C 705.5,77.1667 705.5,76.8333 705.5,76.5C 705.5,75.8333 705.167,75.5 704.5,75.5C 704.5,75.1667 704.5,74.8333 704.5,74.5C 704.5,73.8333 704.167,73.5 703.5,73.5C 703.34,71.847 702.674,70.5137 701.5,69.5C 701.5,68.8333 701.167,68.5 700.5,68.5C 683.341,67.5033 666.008,67.17 648.5,67.5C 648.5,71.8333 648.5,76.1667 648.5,80.5C 648.5,110.5 648.5,140.5 648.5,170.5C 634.154,170.425 619.821,170.758 605.5,171.5C 605.802,168.941 605.468,166.607 604.5,164.5C 604.5,132.833 604.5,101.167 604.5,69.5C 605.833,69.1667 605.833,68.8333 604.5,68.5C 602.833,67.1667 601.167,67.1667 599.5,68.5C 598.167,68.5 596.833,68.5 595.5,68.5C 584.167,67.1667 572.833,67.1667 561.5,68.5C 560.833,68.5 560.167,68.5 559.5,68.5C 557.833,67.1667 556.167,67.1667 554.5,68.5C 553.236,99.8315 553.236,131.165 554.5,162.5C 554.5,165.5 554.5,168.5 554.5,171.5C 554.5,172.833 554.5,174.167 554.5,175.5C 532.487,180.703 510.487,186.037 488.5,191.5C 488.5,186.5 488.5,181.5 488.5,176.5C 488.5,176.167 488.5,175.833 488.5,175.5C 488.5,139.5 488.5,103.5 488.5,67.5C 487.5,67.5 486.5,67.5 485.5,67.5C 480.833,67.5 476.167,67.5 471.5,67.5C 467.5,67.5 463.5,67.5 459.5,67.5C 454.833,67.5 450.167,67.5 445.5,67.5C 442.833,67.5 440.167,67.5 437.5,67.5C 437.5,70.1667 437.5,72.8333 437.5,75.5C 437.5,77.1667 437.5,78.8333 437.5,80.5C 437.5,123.167 437.5,165.833 437.5,208.5C 347.013,244.153 271.013,299.653 209.5,375C 169.833,375.667 130.167,375.667 90.5,375C 87.1182,374.824 83.7848,374.324 80.5,373.5C 163.396,209.116 293.063,100.283 469.5,47C 629.157,4.60885 782.157,21.6088 928.5,98C 1045,162.332 1132.67,254.165 1191.5,373.5C 1189.23,374.314 1186.9,374.814 1184.5,375C 1144.17,375.667 1103.83,375.667 1063.5,375C 1051.02,362.186 1038.86,349.019 1027,335.5C 972.02,280.074 908.187,237.741 835.5,208.5 Z M 700.5,68.5 C 683.5,68.5 666.5,68.5 649.5,68.5C 649.5,72.5 649.5,76.5 649.5,80.5C 649.167,80.5 648.833,80.5 648.5,80.5C 648.5,76.1667 648.5,71.8333 648.5,67.5C 666.008,67.17 683.341,67.5033 700.5,68.5 Z M 648.5,170.5 C 647.518,196.122 647.185,221.789 647.5,247.5C 633.833,247.5 620.167,247.5 606.5,247.5C 606.796,222.141 606.463,196.808 605.5,171.5C 619.821,170.758 634.154,170.425 648.5,170.5 Z M 554.5,175.5 C 554.5,175.833 554.5,176.167 554.5,176.5C 553.27,202.467 553.27,228.467 554.5,254.5C 531.651,258.734 509.318,264.734 487.5,272.5C 487.5,270.833 487.5,269.167 487.5,267.5C 488.498,244.673 488.831,221.673 488.5,198.5C 488.5,196.167 488.5,193.833 488.5,191.5C 510.487,186.037 532.487,180.703 554.5,175.5 Z M 701.5,184.5 C 702.674,185.514 703.34,186.847 703.5,188.5C 701.896,187.713 701.229,186.38 701.5,184.5 Z M 699.5,185.5 C 700.157,188.11 701.491,190.443 703.5,192.5C 704.298,192.043 704.631,191.376 704.5,190.5C 714.562,210.958 724.896,231.291 735.5,251.5C 736.773,253.713 737.773,256.046 738.5,258.5C 725.895,256.112 713.229,254.112 700.5,252.5C 700.5,233.5 700.5,214.5 700.5,195.5C 699.527,193.052 699.194,190.385 699.5,187.5C 699.5,186.833 699.5,186.167 699.5,185.5 Z M 758.5,185.5 C 765.916,186.749 773.25,188.415 780.5,190.5C 781.183,190.137 781.85,189.804 782.5,189.5C 781.557,203.154 781.557,216.821 782.5,230.5C 782.362,234.286 781.695,234.286 780.5,230.5C 781.65,225.684 781.816,220.684 781,215.5C 780.667,218.167 780.333,220.833 780,223.5C 779.46,215.601 778.626,215.601 777.5,223.5C 775.494,219.797 773.494,216.131 771.5,212.5C 767.833,204.5 764.167,196.5 760.5,188.5C 761.757,187.377 761.424,186.711 759.5,186.5C 758.833,186.5 758.5,186.167 758.5,185.5 Z M 778.5,225.5 C 780.176,226.183 780.843,227.517 780.5,229.5C 779.326,228.486 778.66,227.153 778.5,225.5 Z"/></g>
<g><path style="opacity:1" fill="#774e48" d="M 445.5,67.5 C 445.5,67.8333 445.5,68.1667 445.5,68.5C 443.167,68.5 440.833,68.5 438.5,68.5C 438.5,70.8333 438.5,73.1667 438.5,75.5C 438.167,75.5 437.833,75.5 437.5,75.5C 437.5,72.8333 437.5,70.1667 437.5,67.5C 440.167,67.5 442.833,67.5 445.5,67.5 Z"/></g>
<g><path style="opacity:1" fill="#dd1614" d="M 486.5,187.5 C 486.665,191.182 486.499,194.848 486,198.5C 484.951,197.483 483.784,197.316 482.5,198C 483.673,202.679 483.673,203.846 482.5,201.5C 481.5,201.5 480.5,201.5 479.5,201.5C 479.5,200.5 479.5,199.5 479.5,198.5C 477.833,198.5 476.167,198.5 474.5,198.5C 474.622,188.955 473.955,179.455 472.5,170C 473.427,142.746 473.76,115.579 473.5,88.5C 473.167,87.1667 472.833,85.8333 472.5,84.5C 469.118,83.7065 465.785,82.7065 462.5,81.5C 458.968,82.967 455.302,83.6336 451.5,83.5C 450.06,89.8034 448.727,96.1368 447.5,102.5C 448.052,104.333 448.885,106 450,107.5C 450.881,122.177 451.714,136.843 452.5,151.5C 452.987,168.57 452.32,185.737 450.5,203C 451.148,204.44 451.481,205.94 451.5,207.5C 450.5,207.5 449.5,207.5 448.5,207.5C 448.5,208.5 448.5,209.5 448.5,210.5C 445.167,210.5 441.833,210.5 438.5,210.5C 438.5,207.833 438.5,205.167 438.5,202.5C 439.339,203.641 440.006,204.974 440.5,206.5C 441.167,207.833 441.833,207.833 442.5,206.5C 444.118,202.356 444.951,198.022 445,193.5C 444.311,176.685 444.478,159.851 445.5,143C 444.956,128.161 444.289,113.328 443.5,98.5C 443.636,90.4007 444.303,82.4007 445.5,74.5C 453.101,72.9498 460.768,72.4498 468.5,73C 471.232,73.413 473.899,74.0797 476.5,75C 475.027,75.7096 474.36,76.8762 474.5,78.5C 475.5,78.5 476.5,78.5 477.5,78.5C 481.877,107.499 482.544,136.665 479.5,166C 480.48,172.861 481.647,179.694 483,186.5C 484.011,187.337 485.178,187.67 486.5,187.5 Z"/></g>
<g><path style="opacity:1" fill="#da1411" d="M 833.5,71.5 C 833.5,73.8333 833.5,76.1667 833.5,78.5C 833.5,117.5 833.5,156.5 833.5,195.5C 833.19,198.713 833.523,201.713 834.5,204.5C 834.433,205.959 834.766,207.292 835.5,208.5C 835.167,208.5 834.833,208.5 834.5,208.5C 832.959,209.558 831.959,211.058 831.5,213C 832.567,215.869 832.567,218.703 831.5,221.5C 830.548,219.955 830.215,218.288 830.5,216.5C 828.5,216.5 826.5,216.5 824.5,216.5C 824.5,214.5 824.5,212.5 824.5,210.5C 822.5,210.5 820.5,210.5 818.5,210.5C 818.5,202.833 818.5,195.167 818.5,187.5C 819.833,187.5 821.167,187.5 822.5,187.5C 821.377,183.298 820.71,178.965 820.5,174.5C 821.88,165.533 822.38,156.533 822,147.5C 821.764,144.792 820.931,142.292 819.5,140C 822.293,126.267 822.959,112.434 821.5,98.5C 819.297,95.8912 818.297,92.8912 818.5,89.5C 819.5,89.5 820.5,89.5 821.5,89.5C 819.483,85.7914 818.483,81.7914 818.5,77.5C 811.809,77.4542 805.143,77.7875 798.5,78.5C 796.804,90.7167 795.804,103.05 795.5,115.5C 796.803,125.001 796.803,134.501 795.5,144C 796.146,149.938 797.146,155.771 798.5,161.5C 797.5,161.5 796.5,161.5 795.5,161.5C 796.586,171.272 796.586,180.938 795.5,190.5C 794.178,190.67 793.011,190.337 792,189.5C 792,193.5 790,195.5 786,195.5C 785.711,162.337 785.378,129.004 785,95.5C 784.823,99.3563 784.323,103.023 783.5,106.5C 783.178,94.253 783.512,82.0864 784.5,70C 792.5,69.8333 800.5,69.6667 808.5,69.5C 817.065,69.5305 825.399,70.1972 833.5,71.5 Z"/></g>
<g><path style="opacity:1" fill="#dd1c1c" d="M 437.5,80.5 C 437.833,80.5 438.167,80.5 438.5,80.5C 438.5,121.167 438.5,161.833 438.5,202.5C 438.5,205.167 438.5,207.833 438.5,210.5C 441.833,210.5 445.167,210.5 448.5,210.5C 448.5,209.5 448.5,208.5 448.5,207.5C 449.5,207.5 450.5,207.5 451.5,207.5C 451.481,205.94 451.148,204.44 450.5,203C 452.32,185.737 452.987,168.57 452.5,151.5C 451.714,136.843 450.881,122.177 450,107.5C 448.885,106 448.052,104.333 447.5,102.5C 448.727,96.1368 450.06,89.8034 451.5,83.5C 455.302,83.6336 458.968,82.967 462.5,81.5C 465.785,82.7065 469.118,83.7065 472.5,84.5C 472.833,85.8333 473.167,87.1667 473.5,88.5C 473.76,115.579 473.427,142.746 472.5,170C 473.955,179.455 474.622,188.955 474.5,198.5C 476.167,198.5 477.833,198.5 479.5,198.5C 479.5,199.5 479.5,200.5 479.5,201.5C 480.5,201.5 481.5,201.5 482.5,201.5C 483.673,203.846 483.673,202.679 482.5,198C 483.784,197.316 484.951,197.483 486,198.5C 486.499,194.848 486.665,191.182 486.5,187.5C 487.167,191.167 487.833,194.833 488.5,198.5C 488.831,221.673 488.498,244.673 487.5,267.5C 487.667,250.497 487.5,233.497 487,216.5C 486.667,231.833 486.333,247.167 486,262.5C 485.827,258.459 485.327,254.459 484.5,250.5C 482.529,256.052 481.029,261.719 480,267.5C 478.132,266.328 476.298,266.495 474.5,268C 477.167,268.667 477.167,269.333 474.5,270C 475.022,270.561 475.355,271.228 475.5,272C 474.357,274.342 473.69,276.842 473.5,279.5C 474.135,285.152 474.468,290.818 474.5,296.5C 477.045,296.151 479.045,296.984 480.5,299C 479.925,301.878 479.591,305.045 479.5,308.5C 481.5,309.167 483.5,309.833 485.5,310.5C 485.5,311.5 485.5,312.5 485.5,313.5C 487.5,313.5 489.5,313.5 491.5,313.5C 491.5,315.5 491.5,317.5 491.5,319.5C 493.5,319.5 495.5,319.5 497.5,319.5C 498.5,324.5 496.5,326.5 491.5,325.5C 491.5,326.5 491.5,327.5 491.5,328.5C 485.859,327.69 480.193,326.856 474.5,326C 469.851,318.782 463.851,314.615 456.5,313.5C 456.673,308.677 454.339,306.677 449.5,307.5C 445.411,303.665 442.577,298.998 441,293.5C 439.108,294.617 438.275,296.284 438.5,298.5C 438.167,298.5 437.833,298.5 437.5,298.5C 437.5,297.167 437.5,295.833 437.5,294.5C 437.5,293.833 437.167,293.5 436.5,293.5C 436.5,292.833 436.5,292.167 436.5,291.5C 436.184,263.789 436.517,236.122 437.5,208.5C 437.5,165.833 437.5,123.167 437.5,80.5 Z"/></g>
<g><path style="opacity:1" fill="#df1c1c" d="M 834.5,208.5 C 835.483,235.789 835.816,263.122 835.5,290.5C 835.167,290.5 834.833,290.5 834.5,290.5C 834.662,288.473 834.495,286.473 834,284.5C 833.458,289.721 832.624,289.721 831.5,284.5C 831.046,289.867 829.546,294.867 827,299.5C 826.19,310.307 825.19,320.974 824,331.5C 818.728,335.873 812.561,338.207 805.5,338.5C 795.263,338.921 786.929,335.921 780.5,329.5C 779.056,327.392 778.39,325.059 778.5,322.5C 775.063,321.756 772.397,319.756 770.5,316.5C 771.575,313.562 771.741,310.562 771,307.5C 769.337,305.842 768.504,303.842 768.5,301.5C 767.5,301.5 766.5,301.5 765.5,301.5C 765.261,299.533 765.594,297.699 766.5,296C 763.994,292.821 762.161,289.321 761,285.5C 758.181,281.351 755.014,277.517 751.5,274C 750.207,273.51 748.873,273.343 747.5,273.5C 746.662,273.158 746.328,272.492 746.5,271.5C 746.5,270.833 746.167,270.5 745.5,270.5C 744.559,268.95 743.893,267.284 743.5,265.5C 743.5,264.833 743.167,264.5 742.5,264.5C 741.662,264.158 741.328,263.492 741.5,262.5C 741.5,261.833 741.167,261.5 740.5,261.5C 740.5,261.167 740.5,260.833 740.5,260.5C 740.5,259.833 740.167,259.5 739.5,259.5C 739.5,258.833 739.167,258.5 738.5,258.5C 737.773,256.046 736.773,253.713 735.5,251.5C 734.014,248.1 734.18,244.767 736,241.5C 736.692,242.025 737.192,242.692 737.5,243.5C 743.463,244.496 749.463,244.829 755.5,244.5C 755.5,243.5 755.5,242.5 755.5,241.5C 756.5,241.5 757.5,241.5 758.5,241.5C 758.5,243.5 758.5,245.5 758.5,247.5C 760.5,247.5 762.5,247.5 764.5,247.5C 764.5,250.5 764.5,253.5 764.5,256.5C 766.5,257.167 768.5,257.833 770.5,258.5C 770.5,259.833 770.5,261.167 770.5,262.5C 766.5,263.167 766.5,263.833 770.5,264.5C 771.024,270.187 771.69,275.854 772.5,281.5C 773.5,281.5 774.5,281.5 775.5,281.5C 775.5,282.5 775.5,283.5 775.5,284.5C 776.5,284.5 777.5,284.5 778.5,284.5C 778.5,288.5 778.5,292.5 778.5,296.5C 780.5,296.5 782.5,296.5 784.5,296.5C 784.5,300.167 784.5,303.833 784.5,307.5C 785.5,307.5 786.5,307.5 787.5,307.5C 787.5,308.5 787.5,309.5 787.5,310.5C 788.5,310.5 789.5,310.5 790.5,310.5C 790.5,312.5 790.5,314.5 790.5,316.5C 791.5,316.5 792.5,316.5 793.5,316.5C 793.5,317.5 793.5,318.5 793.5,319.5C 796.167,319.5 798.833,319.5 801.5,319.5C 801.5,320.5 801.5,321.5 801.5,322.5C 805.167,322.5 808.833,322.5 812.5,322.5C 812.512,310.573 813.179,310.573 814.5,322.5C 815.498,313.859 815.831,305.192 815.5,296.5C 812.833,296.5 810.167,296.5 807.5,296.5C 807.5,294.5 807.5,292.5 807.5,290.5C 805.5,290.5 803.5,290.5 801.5,290.5C 801.5,286.833 801.5,283.167 801.5,279.5C 805.167,279.5 808.833,279.5 812.5,279.5C 812.5,260.167 812.5,240.833 812.5,221.5C 810.833,221.5 809.167,221.5 807.5,221.5C 807.5,219.833 807.5,218.167 807.5,216.5C 805.5,216.5 803.5,216.5 801.5,216.5C 801.5,212.5 801.5,208.5 801.5,204.5C 799.5,204.5 797.5,204.5 795.5,204.5C 795.5,206.5 795.5,208.5 795.5,210.5C 793.167,210.5 790.833,210.5 788.5,210.5C 790.256,217.963 790.922,225.629 790.5,233.5C 788.076,233.808 785.743,233.474 783.5,232.5C 784.428,231.232 784.595,229.899 784,228.5C 783.722,229.416 783.222,230.082 782.5,230.5C 781.557,216.821 781.557,203.154 782.5,189.5C 782.5,186.833 782.5,184.167 782.5,181.5C 783.498,156.672 783.831,131.672 783.5,106.5C 784.323,103.023 784.823,99.3563 785,95.5C 785.378,129.004 785.711,162.337 786,195.5C 790,195.5 792,193.5 792,189.5C 793.011,190.337 794.178,190.67 795.5,190.5C 796.586,180.938 796.586,171.272 795.5,161.5C 796.5,161.5 797.5,161.5 798.5,161.5C 797.146,155.771 796.146,149.938 795.5,144C 796.803,134.501 796.803,125.001 795.5,115.5C 795.804,103.05 796.804,90.7167 798.5,78.5C 805.143,77.7875 811.809,77.4542 818.5,77.5C 818.483,81.7914 819.483,85.7914 821.5,89.5C 820.5,89.5 819.5,89.5 818.5,89.5C 818.297,92.8912 819.297,95.8912 821.5,98.5C 822.959,112.434 822.293,126.267 819.5,140C 820.931,142.292 821.764,144.792 822,147.5C 822.38,156.533 821.88,165.533 820.5,174.5C 820.71,178.965 821.377,183.298 822.5,187.5C 821.167,187.5 819.833,187.5 818.5,187.5C 818.5,195.167 818.5,202.833 818.5,210.5C 820.5,210.5 822.5,210.5 824.5,210.5C 824.5,212.5 824.5,214.5 824.5,216.5C 826.5,216.5 828.5,216.5 830.5,216.5C 830.215,218.288 830.548,219.955 831.5,221.5C 832.567,218.703 832.567,215.869 831.5,213C 831.959,211.058 832.959,209.558 834.5,208.5 Z"/></g>
<g><path style="opacity:1" fill="#d50e0a" d="M 555.5,68.5 C 556.833,68.5 558.167,68.5 559.5,68.5C 560.167,68.5 560.833,68.5 561.5,68.5C 572.833,68.5 584.167,68.5 595.5,68.5C 596.833,68.5 598.167,68.5 599.5,68.5C 601.167,68.5 602.833,68.5 604.5,68.5C 604.5,68.8333 604.5,69.1667 604.5,69.5C 604.5,101.167 604.5,132.833 604.5,164.5C 604.666,169.179 604.499,173.845 604,178.5C 603.751,179.624 603.251,180.624 602.5,181.5C 602.045,178.854 601.378,175.854 600.5,172.5C 598.202,171.102 597.536,169.269 598.5,167C 597.502,158.054 596.502,149.054 595.5,140C 596.335,123.33 596.502,106.497 596,89.5C 595.064,85.8865 594.564,82.2198 594.5,78.5C 589.466,77.0387 584.299,76.0387 579,75.5C 574.671,76.7834 570.837,76.4501 567.5,74.5C 565.941,75.0736 564.441,75.7402 563,76.5C 562.095,81.7943 561.595,87.1276 561.5,92.5C 562.95,114.559 563.45,136.559 563,158.5C 561.355,174.416 560.355,174.416 560,158.5C 559.193,164.416 559.359,170.25 560.5,176C 559.975,176.692 559.308,177.192 558.5,177.5C 557.264,176.754 555.93,176.421 554.5,176.5C 554.5,176.167 554.5,175.833 554.5,175.5C 554.5,174.167 554.5,172.833 554.5,171.5C 555.477,168.713 555.81,165.713 555.5,162.5C 556.769,131.135 556.769,99.8021 555.5,68.5 Z"/></g>
<g><path style="opacity:1" fill="#df1c1c" d="M 604.5,164.5 C 605.468,166.607 605.802,168.941 605.5,171.5C 606.463,196.808 606.796,222.141 606.5,247.5C 605.912,250.61 605.245,253.61 604.5,256.5C 604.683,252.251 604.683,248.251 604.5,244.5C 604.459,242.255 603.625,241.588 602,242.5C 602.263,241.049 602.096,239.716 601.5,238.5C 600.41,239.727 599.076,240.56 597.5,241C 598.856,244.653 597.856,247.653 594.5,250C 595.624,250.839 596.291,252.006 596.5,253.5C 596.063,256.374 595.063,259.041 593.5,261.5C 592.952,272.628 591.619,283.295 589.5,293.5C 586.067,301.394 582.234,309.061 578,316.5C 576.933,315.809 575.766,315.309 574.5,315C 575.5,314.667 576.5,314.333 577.5,314C 573.514,313.501 569.514,313.334 565.5,313.5C 565.858,310.102 565.192,306.935 563.5,304C 564.555,300.328 565.888,296.828 567.5,293.5C 568.5,293.5 569.5,293.5 570.5,293.5C 570.374,291.8 569.707,290.3 568.5,289C 570.382,282.005 571.049,274.838 570.5,267.5C 569.5,267.5 568.5,267.5 567.5,267.5C 567.66,265.801 567.494,264.134 567,262.5C 565.159,260.841 563.992,258.841 563.5,256.5C 562.5,256.5 561.5,256.5 560.5,256.5C 560.5,254.833 560.5,253.167 560.5,251.5C 556.866,251.156 555.2,252.823 555.5,256.5C 556.888,268.024 556.554,279.357 554.5,290.5C 554.5,278.5 554.5,266.5 554.5,254.5C 553.27,228.467 553.27,202.467 554.5,176.5C 555.93,176.421 557.264,176.754 558.5,177.5C 559.308,177.192 559.975,176.692 560.5,176C 559.359,170.25 559.193,164.416 560,158.5C 560.355,174.416 561.355,174.416 563,158.5C 563.45,136.559 562.95,114.559 561.5,92.5C 561.595,87.1276 562.095,81.7943 563,76.5C 564.441,75.7402 565.941,75.0736 567.5,74.5C 570.837,76.4501 574.671,76.7834 579,75.5C 584.299,76.0387 589.466,77.0387 594.5,78.5C 594.564,82.2198 595.064,85.8865 596,89.5C 596.502,106.497 596.335,123.33 595.5,140C 596.502,149.054 597.502,158.054 598.5,167C 597.536,169.269 598.202,171.102 600.5,172.5C 601.378,175.854 602.045,178.854 602.5,181.5C 603.251,180.624 603.751,179.624 604,178.5C 604.499,173.845 604.666,169.179 604.5,164.5 Z"/></g>
<g><path style="opacity:1" fill="#a35c62" d="M 485.5,68.5 C 485.5,68.1667 485.5,67.8333 485.5,67.5C 486.5,67.5 487.5,67.5 488.5,67.5C 488.5,103.5 488.5,139.5 488.5,175.5C 487.167,175.833 487.167,176.167 488.5,176.5C 488.5,181.5 488.5,186.5 488.5,191.5C 488.5,193.833 488.5,196.167 488.5,198.5C 487.833,194.833 487.167,191.167 486.5,187.5C 486.176,148.303 486.509,109.136 487.5,70C 487.164,68.9701 486.497,68.4701 485.5,68.5 Z"/></g>
<g><path style="opacity:1" fill="#df1c20" d="M 771.5,212.5 C 773.494,216.131 775.494,219.797 777.5,223.5C 777.328,224.492 777.662,225.158 778.5,225.5C 778.66,227.153 779.326,228.486 780.5,229.5C 780.5,229.833 780.5,230.167 780.5,230.5C 781.695,234.286 782.362,234.286 782.5,230.5C 783.222,230.082 783.722,229.416 784,228.5C 784.595,229.899 784.428,231.232 783.5,232.5C 785.743,233.474 788.076,233.808 790.5,233.5C 790.922,225.629 790.256,217.963 788.5,210.5C 790.833,210.5 793.167,210.5 795.5,210.5C 795.5,208.5 795.5,206.5 795.5,204.5C 797.5,204.5 799.5,204.5 801.5,204.5C 801.5,208.5 801.5,212.5 801.5,216.5C 803.5,216.5 805.5,216.5 807.5,216.5C 807.5,218.167 807.5,219.833 807.5,221.5C 809.167,221.5 810.833,221.5 812.5,221.5C 812.5,240.833 812.5,260.167 812.5,279.5C 808.833,279.5 805.167,279.5 801.5,279.5C 801.5,283.167 801.5,286.833 801.5,290.5C 803.5,290.5 805.5,290.5 807.5,290.5C 807.5,292.5 807.5,294.5 807.5,296.5C 810.167,296.5 812.833,296.5 815.5,296.5C 815.831,305.192 815.498,313.859 814.5,322.5C 813.179,310.573 812.512,310.573 812.5,322.5C 808.833,322.5 805.167,322.5 801.5,322.5C 801.5,321.5 801.5,320.5 801.5,319.5C 798.833,319.5 796.167,319.5 793.5,319.5C 793.5,318.5 793.5,317.5 793.5,316.5C 792.5,316.5 791.5,316.5 790.5,316.5C 790.5,314.5 790.5,312.5 790.5,310.5C 789.5,310.5 788.5,310.5 787.5,310.5C 787.5,309.5 787.5,308.5 787.5,307.5C 786.5,307.5 785.5,307.5 784.5,307.5C 784.5,303.833 784.5,300.167 784.5,296.5C 782.5,296.5 780.5,296.5 778.5,296.5C 778.5,292.5 778.5,288.5 778.5,284.5C 777.5,284.5 776.5,284.5 775.5,284.5C 775.5,283.5 775.5,282.5 775.5,281.5C 774.5,281.5 773.5,281.5 772.5,281.5C 771.69,275.854 771.024,270.187 770.5,264.5C 766.5,263.833 766.5,263.167 770.5,262.5C 770.5,261.167 770.5,259.833 770.5,258.5C 768.5,257.833 766.5,257.167 764.5,256.5C 764.5,253.5 764.5,250.5 764.5,247.5C 762.5,247.5 760.5,247.5 758.5,247.5C 758.5,245.5 758.5,243.5 758.5,241.5C 757.5,241.5 756.5,241.5 755.5,241.5C 755.5,242.5 755.5,243.5 755.5,244.5C 749.463,244.829 743.463,244.496 737.5,243.5C 737.192,242.692 736.692,242.025 736,241.5C 734.18,244.767 734.014,248.1 735.5,251.5C 724.896,231.291 714.562,210.958 704.5,190.5C 704.672,189.508 704.338,188.842 703.5,188.5C 703.34,186.847 702.674,185.514 701.5,184.5C 701.5,183.833 701.5,183.167 701.5,182.5C 702.222,182.082 702.722,181.416 703,180.5C 703.498,177.183 703.665,173.85 703.5,170.5C 697.659,170.145 691.992,170.812 686.5,172.5C 686.5,173.5 686.5,174.5 686.5,175.5C 687.5,175.5 688.5,175.5 689.5,175.5C 689.5,176.5 689.5,177.5 689.5,178.5C 688.5,178.5 687.5,178.5 686.5,178.5C 686.5,181.5 686.5,184.5 686.5,187.5C 684.5,187.5 682.5,187.5 680.5,187.5C 680.5,189.167 680.5,190.833 680.5,192.5C 678.5,192.5 676.5,192.5 674.5,192.5C 675.413,204.136 675.746,215.803 675.5,227.5C 669.5,227.5 663.5,227.5 657.5,227.5C 657.665,231.182 657.499,234.848 657,238.5C 656.093,233.338 655.26,228.171 654.5,223C 655.373,209.303 656.04,195.469 656.5,181.5C 658.833,181.5 661.167,181.5 663.5,181.5C 663.5,179.5 663.5,177.5 663.5,175.5C 667.5,175.5 671.5,175.5 675.5,175.5C 675.5,173.5 675.5,171.5 675.5,169.5C 673.5,169.5 671.5,169.5 669.5,169.5C 669.5,163.833 669.5,158.167 669.5,152.5C 670.5,152.5 671.5,152.5 672.5,152.5C 672.5,150.833 672.5,149.167 672.5,147.5C 671.5,147.5 670.5,147.5 669.5,147.5C 669.5,145.5 669.5,143.5 669.5,141.5C 671.5,141.5 673.5,141.5 675.5,141.5C 675.5,139.5 675.5,137.5 675.5,135.5C 673.5,135.5 671.5,135.5 669.5,135.5C 669.5,129.833 669.5,124.167 669.5,118.5C 668.167,118.5 666.833,118.5 665.5,118.5C 666.159,115.545 666.492,112.545 666.5,109.5C 665.5,109.5 664.5,109.5 663.5,109.5C 663.5,106.833 663.5,104.167 663.5,101.5C 665.5,101.5 667.5,101.5 669.5,101.5C 669.5,99.5 669.5,97.5 669.5,95.5C 671.5,95.5 673.5,95.5 675.5,95.5C 675.5,97.5 675.5,99.5 675.5,101.5C 679.167,101.5 682.833,101.5 686.5,101.5C 686.5,103.167 686.5,104.833 686.5,106.5C 688.5,106.5 690.5,106.5 692.5,106.5C 692.5,108.5 692.5,110.5 692.5,112.5C 695.167,112.5 697.833,112.5 700.5,112.5C 700.5,114.5 700.5,116.5 700.5,118.5C 699.5,118.5 698.5,118.5 697.5,118.5C 697.5,120.5 697.5,122.5 697.5,124.5C 699.5,124.5 701.5,124.5 703.5,124.5C 703.5,127.167 703.5,129.833 703.5,132.5C 704.5,132.5 705.5,132.5 706.5,132.5C 706.5,134.5 706.5,136.5 706.5,138.5C 707.5,138.5 708.5,138.5 709.5,138.5C 709.5,140.5 709.5,142.5 709.5,144.5C 710.5,144.5 711.5,144.5 712.5,144.5C 712.5,146.5 712.5,148.5 712.5,150.5C 713.5,150.5 714.5,150.5 715.5,150.5C 716.64,153.025 717.307,155.692 717.5,158.5C 718.5,158.5 719.5,158.5 720.5,158.5C 720.5,159.5 720.5,160.5 720.5,161.5C 719.5,161.5 718.5,161.5 717.5,161.5C 717.5,162.5 717.5,163.5 717.5,164.5C 718.5,164.5 719.5,164.5 720.5,164.5C 720.5,166.5 720.5,168.5 720.5,170.5C 722.5,170.5 724.5,170.5 726.5,170.5C 726.5,172.167 726.5,173.833 726.5,175.5C 725.5,175.5 724.5,175.5 723.5,175.5C 723.5,176.5 723.5,177.5 723.5,178.5C 724.5,178.5 725.5,178.5 726.5,178.5C 726.5,179.5 726.5,180.5 726.5,181.5C 727.5,181.5 728.5,181.5 729.5,181.5C 729.5,182.5 729.5,183.5 729.5,184.5C 731.5,184.5 733.5,184.5 735.5,184.5C 735.5,185.5 735.5,186.5 735.5,187.5C 736.5,187.5 737.5,187.5 738.5,187.5C 738.5,191.167 738.5,194.833 738.5,198.5C 740.167,198.5 741.833,198.5 743.5,198.5C 743.5,202.5 743.5,206.5 743.5,210.5C 747.5,210.5 751.5,210.5 755.5,210.5C 755.5,212.5 755.5,214.5 755.5,216.5C 759.555,216.824 763.555,216.491 767.5,215.5C 768.5,212.833 769.5,212.833 770.5,215.5C 771.386,214.675 771.719,213.675 771.5,212.5 Z M 701.5,184.5 C 702.674,185.514 703.34,186.847 703.5,188.5C 701.896,187.713 701.229,186.38 701.5,184.5 Z M 778.5,225.5 C 780.176,226.183 780.843,227.517 780.5,229.5C 779.326,228.486 778.66,227.153 778.5,225.5 Z"/></g>
<g><path style="opacity:1" fill="#d50b07" d="M 459.5,67.5 C 463.5,67.5 467.5,67.5 471.5,67.5C 475.97,68.4861 480.637,68.8195 485.5,68.5C 486.497,68.4701 487.164,68.9701 487.5,70C 486.509,109.136 486.176,148.303 486.5,187.5C 485.178,187.67 484.011,187.337 483,186.5C 481.647,179.694 480.48,172.861 479.5,166C 482.544,136.665 481.877,107.499 477.5,78.5C 476.5,78.5 475.5,78.5 474.5,78.5C 474.36,76.8762 475.027,75.7096 476.5,75C 473.899,74.0797 471.232,73.413 468.5,73C 460.768,72.4498 453.101,72.9498 445.5,74.5C 444.303,82.4007 443.636,90.4007 443.5,98.5C 444.289,113.328 444.956,128.161 445.5,143C 444.478,159.851 444.311,176.685 445,193.5C 444.951,198.022 444.118,202.356 442.5,206.5C 441.833,207.833 441.167,207.833 440.5,206.5C 440.006,204.974 439.339,203.641 438.5,202.5C 438.5,161.833 438.5,121.167 438.5,80.5C 438.5,78.8333 438.5,77.1667 438.5,75.5C 438.5,73.1667 438.5,70.8333 438.5,68.5C 440.833,68.5 443.167,68.5 445.5,68.5C 450.363,68.8195 455.03,68.4861 459.5,67.5 Z"/></g>
<g><path style="opacity:1" fill="#e35557" d="M 554.5,68.5 C 554.833,68.5 555.167,68.5 555.5,68.5C 556.769,99.8021 556.769,131.135 555.5,162.5C 555.167,162.5 554.833,162.5 554.5,162.5C 553.236,131.165 553.236,99.8315 554.5,68.5 Z"/></g>
<g><path style="opacity:1" fill="#cd1a21" d="M 783.5,68.5 C 800.534,67.8479 817.2,68.5146 833.5,70.5C 833.5,70.8333 833.5,71.1667 833.5,71.5C 825.399,70.1972 817.065,69.5305 808.5,69.5C 800.5,69.6667 792.5,69.8333 784.5,70C 783.512,82.0864 783.178,94.253 783.5,106.5C 783.831,131.672 783.498,156.672 782.5,181.5C 782.5,144.167 782.5,106.833 782.5,69.5C 783.167,69.5 783.5,69.1667 783.5,68.5 Z"/></g>
<g><path style="opacity:1" fill="#da1411" d="M 700.5,68.5 C 701.167,68.5 701.5,68.8333 701.5,69.5C 702.674,70.5137 703.34,71.847 703.5,73.5C 704.167,73.5 704.5,73.8333 704.5,74.5C 704.5,74.8333 704.5,75.1667 704.5,75.5C 705.167,75.5 705.5,75.8333 705.5,76.5C 705.5,76.8333 705.5,77.1667 705.5,77.5C 706.167,77.5 706.5,77.8333 706.5,78.5C 706.833,79.1667 707.167,79.8333 707.5,80.5C 706.167,80.8333 706.167,81.1667 707.5,81.5C 708.338,81.8417 708.672,82.5084 708.5,83.5C 708.328,84.4916 708.662,85.1583 709.5,85.5C 709.5,85.8333 709.5,86.1667 709.5,86.5C 710.167,86.5 710.5,86.8333 710.5,87.5C 710.5,87.8333 710.5,88.1667 710.5,88.5C 711.167,88.5 711.5,88.8333 711.5,89.5C 711.5,89.8333 711.5,90.1667 711.5,90.5C 712.167,90.5 712.5,90.8333 712.5,91.5C 712.5,91.8333 712.5,92.1667 712.5,92.5C 713.167,92.5 713.5,92.8333 713.5,93.5C 713.5,93.8333 713.5,94.1667 713.5,94.5C 714.167,94.5 714.5,94.8333 714.5,95.5C 714.5,95.8333 714.5,96.1667 714.5,96.5C 715.167,96.5 715.5,96.8333 715.5,97.5C 715.5,97.8333 715.5,98.1667 715.5,98.5C 716.167,98.5 716.5,98.8333 716.5,99.5C 716.5,99.8333 716.5,100.167 716.5,100.5C 716.328,101.492 716.662,102.158 717.5,102.5C 717.5,102.833 717.5,103.167 717.5,103.5C 718.167,103.5 718.5,103.833 718.5,104.5C 718.5,104.833 718.5,105.167 718.5,105.5C 719.167,105.5 719.5,105.833 719.5,106.5C 719.5,106.833 719.5,107.167 719.5,107.5C 720.167,107.5 720.5,107.833 720.5,108.5C 720.5,108.833 720.5,109.167 720.5,109.5C 721.167,109.5 721.5,109.833 721.5,110.5C 721.5,110.833 721.5,111.167 721.5,111.5C 722.167,111.5 722.5,111.833 722.5,112.5C 722.5,112.833 722.5,113.167 722.5,113.5C 723.167,113.5 723.5,113.833 723.5,114.5C 723.5,114.833 723.5,115.167 723.5,115.5C 724.167,115.5 724.5,115.833 724.5,116.5C 724.5,116.833 724.5,117.167 724.5,117.5C 725.167,117.5 725.5,117.833 725.5,118.5C 726.11,119.391 726.443,120.391 726.5,121.5C 726.328,122.492 726.662,123.158 727.5,123.5C 727.328,124.492 727.662,125.158 728.5,125.5C 728.5,125.833 728.5,126.167 728.5,126.5C 729.167,126.5 729.5,126.833 729.5,127.5C 729.5,127.833 729.5,128.167 729.5,128.5C 730.167,128.5 730.5,128.833 730.5,129.5C 730.5,129.833 730.5,130.167 730.5,130.5C 731.167,130.5 731.5,130.833 731.5,131.5C 731.5,131.833 731.5,132.167 731.5,132.5C 731.328,133.492 731.662,134.158 732.5,134.5C 733.167,134.5 733.5,134.833 733.5,135.5C 733.5,135.833 733.5,136.167 733.5,136.5C 734.167,136.5 734.5,136.833 734.5,137.5C 734.5,137.833 734.5,138.167 734.5,138.5C 734.328,139.492 734.662,140.158 735.5,140.5C 735.328,141.492 735.662,142.158 736.5,142.5C 736.328,143.492 736.662,144.158 737.5,144.5C 738.167,144.5 738.5,144.833 738.5,145.5C 737.167,145.833 737.167,146.167 738.5,146.5C 738.5,146.833 738.5,147.167 738.5,147.5C 739.167,147.5 739.5,147.833 739.5,148.5C 739.5,148.833 739.5,149.167 739.5,149.5C 740.167,149.5 740.5,149.833 740.5,150.5C 740.5,150.833 740.5,151.167 740.5,151.5C 741.167,151.5 741.5,151.833 741.5,152.5C 741.5,152.833 741.5,153.167 741.5,153.5C 741.328,154.492 741.662,155.158 742.5,155.5C 742.328,156.492 742.662,157.158 743.5,157.5C 744.167,157.5 744.5,157.833 744.5,158.5C 744.5,158.833 744.5,159.167 744.5,159.5C 744.328,160.492 744.662,161.158 745.5,161.5C 746.167,161.5 746.5,161.833 746.5,162.5C 746.833,163.167 747.167,163.833 747.5,164.5C 746.167,164.833 746.167,165.167 747.5,165.5C 748.167,165.5 748.5,165.833 748.5,166.5C 747.167,166.833 747.167,167.167 748.5,167.5C 748.5,167.833 748.5,168.167 748.5,168.5C 749.167,168.5 749.5,168.833 749.5,169.5C 749.5,169.833 749.5,170.167 749.5,170.5C 749.5,170.833 749.5,171.167 749.5,171.5C 749.5,172.167 749.833,172.5 750.5,172.5C 751.167,172.5 751.5,172.833 751.5,173.5C 751.5,173.833 751.5,174.167 751.5,174.5C 752.167,174.5 752.5,174.833 752.5,175.5C 752.5,175.833 752.5,176.167 752.5,176.5C 753.167,176.5 753.5,176.833 753.5,177.5C 754.338,177.842 754.672,178.508 754.5,179.5C 755.167,179.5 755.5,179.833 755.5,180.5C 755.5,180.833 755.5,181.167 755.5,181.5C 756.167,181.5 756.5,181.833 756.5,182.5C 757.167,182.5 757.5,182.833 757.5,183.5C 757.5,183.833 757.5,184.167 757.5,184.5C 758.167,184.5 758.5,184.833 758.5,185.5C 758.5,186.167 758.833,186.5 759.5,186.5C 759.5,186.833 759.5,187.167 759.5,187.5C 759.5,187.833 759.5,188.167 759.5,188.5C 760.051,191.807 760.384,195.14 760.5,198.5C 758.088,198.669 755.921,198.003 754,196.5C 752.7,197.707 751.2,198.374 749.5,198.5C 749.5,195.5 749.5,192.5 749.5,189.5C 747.5,188.833 745.5,188.167 743.5,187.5C 743.5,186.5 743.5,185.5 743.5,184.5C 742.5,184.5 741.5,184.5 740.5,184.5C 740.507,179.023 739.007,174.023 736,169.5C 735.667,169.833 735.333,170.167 735,170.5C 734,167.5 733,164.5 732,161.5C 728.845,159.788 727.178,157.121 727,153.5C 725.989,152.663 724.822,152.33 723.5,152.5C 721.749,146.994 720.749,141.328 720.5,135.5C 718.833,135.5 717.167,135.5 715.5,135.5C 715.5,131.833 715.5,128.167 715.5,124.5C 713.5,124.5 711.5,124.5 709.5,124.5C 709.167,120.5 708.833,116.5 708.5,112.5C 706.833,112.5 705.167,112.5 703.5,112.5C 703.5,110.5 703.5,108.5 703.5,106.5C 702.5,106.5 701.5,106.5 700.5,106.5C 698.833,99.1667 697.167,91.8333 695.5,84.5C 688.948,84.2047 682.614,82.8714 676.5,80.5C 671.601,81.5662 666.768,82.8995 662,84.5C 656.733,90.769 655.566,97.769 658.5,105.5C 658.333,106.167 658.167,106.833 658,107.5C 657.667,106.5 657.333,105.5 657,104.5C 656.333,110.167 656.333,115.833 657,121.5C 657.173,117.459 657.673,113.459 658.5,109.5C 659.666,128.825 659.833,148.158 659,167.5C 658.667,169.167 658.333,170.833 658,172.5C 655.214,174.957 653.214,177.957 652,181.5C 651.667,178.833 651.333,176.167 651,173.5C 650.667,174.167 650.333,174.833 650,175.5C 649.5,143.835 649.333,112.168 649.5,80.5C 649.5,76.5 649.5,72.5 649.5,68.5C 666.5,68.5 683.5,68.5 700.5,68.5 Z"/></g>
<g><path style="opacity:1" fill="#dd1b1b" d="M 648.5,80.5 C 648.833,80.5 649.167,80.5 649.5,80.5C 649.333,112.168 649.5,143.835 650,175.5C 650.333,174.833 650.667,174.167 651,173.5C 651.333,176.167 651.667,178.833 652,181.5C 653.214,177.957 655.214,174.957 658,172.5C 658.333,170.833 658.667,169.167 659,167.5C 659.833,148.158 659.666,128.825 658.5,109.5C 657.673,113.459 657.173,117.459 657,121.5C 656.333,115.833 656.333,110.167 657,104.5C 657.333,105.5 657.667,106.5 658,107.5C 658.167,106.833 658.333,106.167 658.5,105.5C 655.566,97.769 656.733,90.769 662,84.5C 666.768,82.8995 671.601,81.5662 676.5,80.5C 682.614,82.8714 688.948,84.2047 695.5,84.5C 697.167,91.8333 698.833,99.1667 700.5,106.5C 701.5,106.5 702.5,106.5 703.5,106.5C 703.5,108.5 703.5,110.5 703.5,112.5C 705.167,112.5 706.833,112.5 708.5,112.5C 708.833,116.5 709.167,120.5 709.5,124.5C 711.5,124.5 713.5,124.5 715.5,124.5C 715.5,128.167 715.5,131.833 715.5,135.5C 717.167,135.5 718.833,135.5 720.5,135.5C 720.749,141.328 721.749,146.994 723.5,152.5C 724.822,152.33 725.989,152.663 727,153.5C 727.178,157.121 728.845,159.788 732,161.5C 733,164.5 734,167.5 735,170.5C 735.333,170.167 735.667,169.833 736,169.5C 739.007,174.023 740.507,179.023 740.5,184.5C 741.5,184.5 742.5,184.5 743.5,184.5C 743.5,185.5 743.5,186.5 743.5,187.5C 745.5,188.167 747.5,188.833 749.5,189.5C 749.5,192.5 749.5,195.5 749.5,198.5C 751.2,198.374 752.7,197.707 754,196.5C 755.921,198.003 758.088,198.669 760.5,198.5C 760.384,195.14 760.051,191.807 759.5,188.5C 759.833,188.5 760.167,188.5 760.5,188.5C 764.167,196.5 767.833,204.5 771.5,212.5C 771.719,213.675 771.386,214.675 770.5,215.5C 769.5,212.833 768.5,212.833 767.5,215.5C 763.555,216.491 759.555,216.824 755.5,216.5C 755.5,214.5 755.5,212.5 755.5,210.5C 751.5,210.5 747.5,210.5 743.5,210.5C 743.5,206.5 743.5,202.5 743.5,198.5C 741.833,198.5 740.167,198.5 738.5,198.5C 738.5,194.833 738.5,191.167 738.5,187.5C 737.5,187.5 736.5,187.5 735.5,187.5C 735.5,186.5 735.5,185.5 735.5,184.5C 733.5,184.5 731.5,184.5 729.5,184.5C 729.5,183.5 729.5,182.5 729.5,181.5C 728.5,181.5 727.5,181.5 726.5,181.5C 726.5,180.5 726.5,179.5 726.5,178.5C 725.5,178.5 724.5,178.5 723.5,178.5C 723.5,177.5 723.5,176.5 723.5,175.5C 724.5,175.5 725.5,175.5 726.5,175.5C 726.5,173.833 726.5,172.167 726.5,170.5C 724.5,170.5 722.5,170.5 720.5,170.5C 720.5,168.5 720.5,166.5 720.5,164.5C 719.5,164.5 718.5,164.5 717.5,164.5C 717.5,163.5 717.5,162.5 717.5,161.5C 718.5,161.5 719.5,161.5 720.5,161.5C 720.5,160.5 720.5,159.5 720.5,158.5C 719.5,158.5 718.5,158.5 717.5,158.5C 717.307,155.692 716.64,153.025 715.5,150.5C 714.5,150.5 713.5,150.5 712.5,150.5C 712.5,148.5 712.5,146.5 712.5,144.5C 711.5,144.5 710.5,144.5 709.5,144.5C 709.5,142.5 709.5,140.5 709.5,138.5C 708.5,138.5 707.5,138.5 706.5,138.5C 706.5,136.5 706.5,134.5 706.5,132.5C 705.5,132.5 704.5,132.5 703.5,132.5C 703.5,129.833 703.5,127.167 703.5,124.5C 701.5,124.5 699.5,124.5 697.5,124.5C 697.5,122.5 697.5,120.5 697.5,118.5C 698.5,118.5 699.5,118.5 700.5,118.5C 700.5,116.5 700.5,114.5 700.5,112.5C 697.833,112.5 695.167,112.5 692.5,112.5C 692.5,110.5 692.5,108.5 692.5,106.5C 690.5,106.5 688.5,106.5 686.5,106.5C 686.5,104.833 686.5,103.167 686.5,101.5C 682.833,101.5 679.167,101.5 675.5,101.5C 675.5,99.5 675.5,97.5 675.5,95.5C 673.5,95.5 671.5,95.5 669.5,95.5C 669.5,97.5 669.5,99.5 669.5,101.5C 667.5,101.5 665.5,101.5 663.5,101.5C 663.5,104.167 663.5,106.833 663.5,109.5C 664.5,109.5 665.5,109.5 666.5,109.5C 666.492,112.545 666.159,115.545 665.5,118.5C 666.833,118.5 668.167,118.5 669.5,118.5C 669.5,124.167 669.5,129.833 669.5,135.5C 671.5,135.5 673.5,135.5 675.5,135.5C 675.5,137.5 675.5,139.5 675.5,141.5C 673.5,141.5 671.5,141.5 669.5,141.5C 669.5,143.5 669.5,145.5 669.5,147.5C 670.5,147.5 671.5,147.5 672.5,147.5C 672.5,149.167 672.5,150.833 672.5,152.5C 671.5,152.5 670.5,152.5 669.5,152.5C 669.5,158.167 669.5,163.833 669.5,169.5C 671.5,169.5 673.5,169.5 675.5,169.5C 675.5,171.5 675.5,173.5 675.5,175.5C 671.5,175.5 667.5,175.5 663.5,175.5C 663.5,177.5 663.5,179.5 663.5,181.5C 661.167,181.5 658.833,181.5 656.5,181.5C 656.04,195.469 655.373,209.303 654.5,223C 655.26,228.171 656.093,233.338 657,238.5C 657.499,234.848 657.665,231.182 657.5,227.5C 663.5,227.5 669.5,227.5 675.5,227.5C 675.746,215.803 675.413,204.136 674.5,192.5C 676.5,192.5 678.5,192.5 680.5,192.5C 680.5,190.833 680.5,189.167 680.5,187.5C 682.5,187.5 684.5,187.5 686.5,187.5C 686.5,184.5 686.5,181.5 686.5,178.5C 687.5,178.5 688.5,178.5 689.5,178.5C 689.5,177.5 689.5,176.5 689.5,175.5C 688.5,175.5 687.5,175.5 686.5,175.5C 686.5,174.5 686.5,173.5 686.5,172.5C 691.992,170.812 697.659,170.145 703.5,170.5C 703.665,173.85 703.498,177.183 703,180.5C 702.722,181.416 702.222,182.082 701.5,182.5C 701.167,182.5 700.833,182.5 700.5,182.5C 700.5,181.833 700.5,181.167 700.5,180.5C 700.217,179.711 699.717,179.044 699,178.5C 698.195,181.696 698.362,184.696 699.5,187.5C 699.194,190.385 699.527,193.052 700.5,195.5C 700.5,214.5 700.5,233.5 700.5,252.5C 700.5,253.167 700.167,253.5 699.5,253.5C 698.833,254.5 698.167,255.5 697.5,256.5C 697.19,255.262 696.69,255.262 696,256.5C 695.138,258.087 694.471,259.754 694,261.5C 693.667,285.5 693.333,309.5 693,333.5C 690.695,336.738 687.528,338.572 683.5,339C 675.833,339.667 668.167,339.667 660.5,339C 657.23,338.063 655.397,335.896 655,332.5C 653.449,307.168 653.116,281.834 654,256.5C 653.457,254.369 652.624,252.369 651.5,250.5C 650.719,251.729 650.219,253.062 650,254.5C 649.79,252.942 649.29,251.609 648.5,250.5C 647.89,249.609 647.557,248.609 647.5,247.5C 647.185,221.789 647.518,196.122 648.5,170.5C 648.5,140.5 648.5,110.5 648.5,80.5 Z M 701.5,184.5 C 702.674,185.514 703.34,186.847 703.5,188.5C 701.896,187.713 701.229,186.38 701.5,184.5 Z"/></g>
<g><path style="opacity:1" fill="#682426" d="M 700.5,180.5 C 699.662,180.842 699.328,181.508 699.5,182.5C 699.5,183.5 699.5,184.5 699.5,185.5C 699.5,186.167 699.5,186.833 699.5,187.5C 698.362,184.696 698.195,181.696 699,178.5C 699.717,179.044 700.217,179.711 700.5,180.5 Z"/></g>
<g><path style="opacity:1" fill="#1a2356" d="M 759.5,187.5 C 759.5,187.167 759.5,186.833 759.5,186.5C 761.424,186.711 761.757,187.377 760.5,188.5C 760.5,187.833 760.167,187.5 759.5,187.5 Z"/></g>
<g><path style="opacity:1" fill="#041f47" d="M 699.5,182.5 C 699.833,182.5 700.167,182.5 700.5,182.5C 700.328,183.492 700.662,184.158 701.5,184.5C 701.229,186.38 701.896,187.713 703.5,188.5C 703.328,189.492 703.662,190.158 704.5,190.5C 704.631,191.376 704.298,192.043 703.5,192.5C 701.491,190.443 700.157,188.11 699.5,185.5C 699.5,184.5 699.5,183.5 699.5,182.5 Z"/></g>
<g><path style="opacity:1" fill="#0d1949" d="M 780.5,230.5 C 780.5,230.167 780.5,229.833 780.5,229.5C 780.843,227.517 780.176,226.183 778.5,225.5C 778.672,224.508 778.338,223.842 777.5,223.5C 778.626,215.601 779.46,215.601 780,223.5C 780.333,220.833 780.667,218.167 781,215.5C 781.816,220.684 781.65,225.684 780.5,230.5 Z"/></g>
<g><path style="opacity:1" fill="#f9f9fb" d="M 606.5,247.5 C 620.167,247.5 633.833,247.5 647.5,247.5C 647.557,248.609 647.89,249.609 648.5,250.5C 648.5,281.167 648.5,311.833 648.5,342.5C 648.5,343.167 648.833,343.5 649.5,343.5C 665.833,343.5 682.167,343.5 698.5,343.5C 699.167,343.5 699.5,343.167 699.5,342.5C 699.5,312.833 699.5,283.167 699.5,253.5C 700.167,253.5 700.5,253.167 700.5,252.5C 713.229,254.112 725.895,256.112 738.5,258.5C 739.167,258.5 739.5,258.833 739.5,259.5C 740.167,259.5 740.5,259.833 740.5,260.5C 740.5,260.833 740.5,261.167 740.5,261.5C 741.167,261.5 741.5,261.833 741.5,262.5C 741.328,263.492 741.662,264.158 742.5,264.5C 743.167,264.5 743.5,264.833 743.5,265.5C 743.893,267.284 744.559,268.95 745.5,270.5C 746.167,270.5 746.5,270.833 746.5,271.5C 746.328,272.492 746.662,273.158 747.5,273.5C 750.616,281.733 754.283,289.733 758.5,297.5C 758.5,298.167 758.833,298.5 759.5,298.5C 759.557,299.609 759.89,300.609 760.5,301.5C 760.5,302.167 760.833,302.5 761.5,302.5C 762.167,304.167 762.833,305.833 763.5,307.5C 763.5,308.167 763.833,308.5 764.5,308.5C 765.274,312.049 766.607,315.382 768.5,318.5C 768.5,319.167 768.833,319.5 769.5,319.5C 769.557,320.609 769.89,321.609 770.5,322.5C 770.5,323.167 770.833,323.5 771.5,323.5C 771.893,325.284 772.559,326.95 773.5,328.5C 773.5,329.167 773.833,329.5 774.5,329.5C 774.263,330.791 774.596,331.791 775.5,332.5C 775.5,333.167 775.833,333.5 776.5,333.5C 776.557,334.609 776.89,335.609 777.5,336.5C 777.5,336.833 777.5,337.167 777.5,337.5C 777.5,338.167 777.833,338.5 778.5,338.5C 778.5,339.167 778.833,339.5 779.5,339.5C 779.5,339.833 779.5,340.167 779.5,340.5C 779.5,341.167 779.833,341.5 780.5,341.5C 789.141,342.832 798.141,343.498 807.5,343.5C 816.673,343.5 825.673,343.166 834.5,342.5C 834.81,339.287 834.477,336.287 833.5,333.5C 833.5,325.833 833.5,318.167 833.5,310.5C 834.473,308.052 834.806,305.385 834.5,302.5C 834.5,299.833 834.5,297.167 834.5,294.5C 835.167,293.833 835.833,293.167 836.5,292.5C 880.162,314.017 920.162,340.85 956.5,373C 955.833,373.333 955.167,373.667 954.5,374C 748.518,375.656 542.518,375.989 336.5,375C 329.421,374.886 322.421,374.219 315.5,373C 352.166,340.52 392.499,313.354 436.5,291.5C 436.5,292.167 436.5,292.833 436.5,293.5C 437.167,293.5 437.5,293.833 437.5,294.5C 437.5,295.833 437.5,297.167 437.5,298.5C 437.328,299.492 437.662,300.158 438.5,300.5C 438.5,301.167 438.5,301.833 438.5,302.5C 438.5,302.833 438.5,303.167 438.5,303.5C 438.833,304.167 439.167,304.833 439.5,305.5C 439.5,305.833 439.5,306.167 439.5,306.5C 439.833,307.167 440.167,307.833 440.5,308.5C 440.5,309.167 440.833,309.5 441.5,309.5C 441.5,309.833 441.5,310.167 441.5,310.5C 441.5,311.167 441.833,311.5 442.5,311.5C 442.5,311.833 442.5,312.167 442.5,312.5C 442.5,313.167 442.833,313.5 443.5,313.5C 443.263,314.791 443.596,315.791 444.5,316.5C 444.5,317.167 444.833,317.5 445.5,317.5C 445.427,319.027 446.094,320.027 447.5,320.5C 447.5,321.167 447.833,321.5 448.5,321.5C 448.738,323.404 449.738,324.738 451.5,325.5C 451.5,326.167 451.833,326.5 452.5,326.5C 452.5,327.167 452.833,327.5 453.5,327.5C 453.973,328.906 454.973,329.573 456.5,329.5C 456.5,330.167 456.833,330.5 457.5,330.5C 457.5,331.167 457.833,331.5 458.5,331.5C 459.514,332.674 460.847,333.34 462.5,333.5C 462.5,334.167 462.833,334.5 463.5,334.5C 466.53,336.403 469.863,337.737 473.5,338.5C 473.5,339.167 473.833,339.5 474.5,339.5C 475.167,339.5 475.833,339.5 476.5,339.5C 476.5,340.167 476.833,340.5 477.5,340.5C 478.5,340.5 479.5,340.5 480.5,340.5C 480.5,341.167 480.833,341.5 481.5,341.5C 482.5,341.5 483.5,341.5 484.5,341.5C 486.631,342.314 488.964,342.814 491.5,343C 509.671,343.829 527.671,343.662 545.5,342.5C 550.537,342.587 555.537,342.254 560.5,341.5C 561.167,341.5 561.5,341.167 561.5,340.5C 566.337,339.747 571.004,338.414 575.5,336.5C 576.167,336.5 576.5,336.167 576.5,335.5C 579.45,334.692 582.117,333.358 584.5,331.5C 585.167,331.5 585.5,331.167 585.5,330.5C 586.71,330.068 587.71,329.401 588.5,328.5C 589.167,328.5 589.5,328.167 589.5,327.5C 591.167,326.5 592.5,325.167 593.5,323.5C 594.167,323.5 594.5,323.167 594.5,322.5C 595.167,322.5 595.5,322.167 595.5,321.5C 596.338,321.158 596.672,320.492 596.5,319.5C 597.167,319.5 597.5,319.167 597.5,318.5C 597.833,317.833 598.167,317.167 598.5,316.5C 599.167,316.5 599.5,316.167 599.5,315.5C 599.5,315.167 599.5,314.833 599.5,314.5C 600.167,314.5 600.5,314.167 600.5,313.5C 601.234,312.292 601.567,310.959 601.5,309.5C 602.167,309.5 602.5,309.167 602.5,308.5C 602.5,307.833 602.5,307.167 602.5,306.5C 603.167,306.5 603.5,306.167 603.5,305.5C 604.44,289.195 604.773,272.862 604.5,256.5C 605.245,253.61 605.912,250.61 606.5,247.5 Z"/></g>
<g><path style="opacity:1" fill="#551810" d="M 834.5,290.5 C 834.833,290.5 835.167,290.5 835.5,290.5C 835.833,291.167 836.167,291.833 836.5,292.5C 835.833,293.167 835.167,293.833 834.5,294.5C 834.5,293.167 834.5,291.833 834.5,290.5 Z"/></g>
<g><path style="opacity:1" fill="#d30c0b" d="M 747.5,273.5 C 748.873,273.343 750.207,273.51 751.5,274C 755.014,277.517 758.181,281.351 761,285.5C 762.161,289.321 763.994,292.821 766.5,296C 765.594,297.699 765.261,299.533 765.5,301.5C 766.5,301.5 767.5,301.5 768.5,301.5C 768.504,303.842 769.337,305.842 771,307.5C 771.741,310.562 771.575,313.562 770.5,316.5C 772.397,319.756 775.063,321.756 778.5,322.5C 778.39,325.059 779.056,327.392 780.5,329.5C 786.929,335.921 795.263,338.921 805.5,338.5C 812.561,338.207 818.728,335.873 824,331.5C 825.19,320.974 826.19,310.307 827,299.5C 829.546,294.867 831.046,289.867 831.5,284.5C 832.624,289.721 833.458,289.721 834,284.5C 834.495,286.473 834.662,288.473 834.5,290.5C 834.5,291.833 834.5,293.167 834.5,294.5C 834.5,297.167 834.5,299.833 834.5,302.5C 833.527,304.948 833.194,307.615 833.5,310.5C 833.5,318.167 833.5,325.833 833.5,333.5C 833.5,336.5 833.5,339.5 833.5,342.5C 815.757,342.819 798.09,342.486 780.5,341.5C 779.833,341.5 779.5,341.167 779.5,340.5C 779.5,340.167 779.5,339.833 779.5,339.5C 778.833,339.5 778.5,339.167 778.5,338.5C 777.833,338.5 777.5,338.167 777.5,337.5C 778.833,337.167 778.833,336.833 777.5,336.5C 776.89,335.609 776.557,334.609 776.5,333.5C 775.833,333.5 775.5,333.167 775.5,332.5C 774.596,331.791 774.263,330.791 774.5,329.5C 773.833,329.5 773.5,329.167 773.5,328.5C 772.559,326.95 771.893,325.284 771.5,323.5C 770.833,323.5 770.5,323.167 770.5,322.5C 769.89,321.609 769.557,320.609 769.5,319.5C 768.833,319.5 768.5,319.167 768.5,318.5C 766.607,315.382 765.274,312.049 764.5,308.5C 763.833,308.5 763.5,308.167 763.5,307.5C 762.833,305.833 762.167,304.167 761.5,302.5C 760.833,302.5 760.5,302.167 760.5,301.5C 759.89,300.609 759.557,299.609 759.5,298.5C 758.833,298.5 758.5,298.167 758.5,297.5C 754.283,289.733 750.616,281.733 747.5,273.5 Z"/></g>
<g><path style="opacity:1" fill="#d10908" d="M 604.5,244.5 C 604.683,248.251 604.683,252.251 604.5,256.5C 604.773,272.862 604.44,289.195 603.5,305.5C 602.833,305.5 602.5,305.833 602.5,306.5C 602.5,307.167 602.5,307.833 602.5,308.5C 601.833,308.5 601.5,308.833 601.5,309.5C 601.567,310.959 601.234,312.292 600.5,313.5C 599.833,313.5 599.5,313.833 599.5,314.5C 599.5,314.833 599.5,315.167 599.5,315.5C 598.833,315.5 598.5,315.833 598.5,316.5C 598.167,317.167 597.833,317.833 597.5,318.5C 596.833,318.5 596.5,318.833 596.5,319.5C 596.672,320.492 596.338,321.158 595.5,321.5C 594.833,321.5 594.5,321.833 594.5,322.5C 593.833,322.5 593.5,322.833 593.5,323.5C 592.5,325.167 591.167,326.5 589.5,327.5C 588.833,327.5 588.5,327.833 588.5,328.5C 587.71,329.401 586.71,330.068 585.5,330.5C 584.833,330.5 584.5,330.833 584.5,331.5C 582.117,333.358 579.45,334.692 576.5,335.5C 575.833,335.5 575.5,335.833 575.5,336.5C 571.004,338.414 566.337,339.747 561.5,340.5C 560.833,340.5 560.5,340.833 560.5,341.5C 555.537,342.254 550.537,342.587 545.5,342.5C 525.152,342.718 504.819,342.384 484.5,341.5C 483.5,341.5 482.5,341.5 481.5,341.5C 480.833,341.5 480.5,341.167 480.5,340.5C 479.5,340.5 478.5,340.5 477.5,340.5C 476.833,340.5 476.5,340.167 476.5,339.5C 475.833,339.5 475.167,339.5 474.5,339.5C 473.833,339.5 473.5,339.167 473.5,338.5C 469.863,337.737 466.53,336.403 463.5,334.5C 462.833,334.5 462.5,334.167 462.5,333.5C 460.847,333.34 459.514,332.674 458.5,331.5C 457.833,331.5 457.5,331.167 457.5,330.5C 456.833,330.5 456.5,330.167 456.5,329.5C 456.027,328.094 455.027,327.427 453.5,327.5C 452.833,327.5 452.5,327.167 452.5,326.5C 451.833,326.5 451.5,326.167 451.5,325.5C 449.738,324.738 448.738,323.404 448.5,321.5C 447.833,321.5 447.5,321.167 447.5,320.5C 446.094,320.027 445.427,319.027 445.5,317.5C 444.833,317.5 444.5,317.167 444.5,316.5C 443.596,315.791 443.263,314.791 443.5,313.5C 442.833,313.5 442.5,313.167 442.5,312.5C 442.5,312.167 442.5,311.833 442.5,311.5C 441.833,311.5 441.5,311.167 441.5,310.5C 441.5,310.167 441.5,309.833 441.5,309.5C 440.833,309.5 440.5,309.167 440.5,308.5C 440.167,307.833 439.833,307.167 439.5,306.5C 440.833,306.167 440.833,305.833 439.5,305.5C 439.167,304.833 438.833,304.167 438.5,303.5C 439.833,303.167 439.833,302.833 438.5,302.5C 438.5,301.833 438.5,301.167 438.5,300.5C 438.5,299.833 438.5,299.167 438.5,298.5C 438.275,296.284 439.108,294.617 441,293.5C 442.577,298.998 445.411,303.665 449.5,307.5C 450.787,309.637 451.621,311.97 452,314.5C 453.7,317.19 456.533,319.19 460.5,320.5C 461.624,321.914 462.624,323.414 463.5,325C 468.146,326.704 472.479,328.871 476.5,331.5C 484.988,333.303 493.321,335.636 501.5,338.5C 512.473,338.425 523.473,338.425 534.5,338.5C 539.814,337.822 545.148,337.322 550.5,337C 549.833,336.667 549.167,336.333 548.5,336C 551.553,335.821 554.553,335.321 557.5,334.5C 563.818,331.179 570.484,328.679 577.5,327C 579.863,326.411 580.863,324.911 580.5,322.5C 581.5,322.5 582.5,322.5 583.5,322.5C 583.5,321.5 583.5,320.5 583.5,319.5C 585.592,319.439 587.092,318.439 588,316.5C 589.132,310.643 591.799,305.643 596,301.5C 596.667,298.833 597.333,296.167 598,293.5C 598.5,279.171 598.667,264.837 598.5,250.5C 599.833,250.5 601.167,250.5 602.5,250.5C 602.025,247.918 602.692,245.918 604.5,244.5 Z"/></g>
<g><path style="opacity:1" fill="#df4140" d="M 699.5,253.5 C 699.5,283.167 699.5,312.833 699.5,342.5C 699.167,342.5 698.833,342.5 698.5,342.5C 697.524,313.865 697.191,285.198 697.5,256.5C 698.167,255.5 698.833,254.5 699.5,253.5 Z"/></g>
<g><path style="opacity:1" fill="#dd1617" d="M 487.5,267.5 C 487.5,269.167 487.5,270.833 487.5,272.5C 487.5,274.5 487.5,276.5 487.5,278.5C 486.662,278.842 486.328,279.508 486.5,280.5C 486.183,284.702 486.517,288.702 487.5,292.5C 487.833,292.5 488.167,292.5 488.5,292.5C 488.833,294.5 489.167,296.5 489.5,298.5C 489.5,299.167 489.833,299.5 490.5,299.5C 493.311,303.078 496.978,305.411 501.5,306.5C 501.5,307.167 501.833,307.5 502.5,307.5C 515.176,308.897 527.843,308.731 540.5,307C 549.262,304.977 553.928,299.477 554.5,290.5C 556.554,279.357 556.888,268.024 555.5,256.5C 555.2,252.823 556.866,251.156 560.5,251.5C 560.5,253.167 560.5,254.833 560.5,256.5C 561.5,256.5 562.5,256.5 563.5,256.5C 563.992,258.841 565.159,260.841 567,262.5C 567.494,264.134 567.66,265.801 567.5,267.5C 568.5,267.5 569.5,267.5 570.5,267.5C 571.049,274.838 570.382,282.005 568.5,289C 569.707,290.3 570.374,291.8 570.5,293.5C 569.5,293.5 568.5,293.5 567.5,293.5C 565.888,296.828 564.555,300.328 563.5,304C 565.192,306.935 565.858,310.102 565.5,313.5C 569.514,313.334 573.514,313.501 577.5,314C 576.5,314.333 575.5,314.667 574.5,315C 575.766,315.309 576.933,315.809 578,316.5C 582.234,309.061 586.067,301.394 589.5,293.5C 591.619,283.295 592.952,272.628 593.5,261.5C 595.063,259.041 596.063,256.374 596.5,253.5C 596.291,252.006 595.624,250.839 594.5,250C 597.856,247.653 598.856,244.653 597.5,241C 599.076,240.56 600.41,239.727 601.5,238.5C 602.096,239.716 602.263,241.049 602,242.5C 603.625,241.588 604.459,242.255 604.5,244.5C 602.692,245.918 602.025,247.918 602.5,250.5C 601.167,250.5 599.833,250.5 598.5,250.5C 598.667,264.837 598.5,279.171 598,293.5C 597.333,296.167 596.667,298.833 596,301.5C 591.799,305.643 589.132,310.643 588,316.5C 587.092,318.439 585.592,319.439 583.5,319.5C 583.5,320.5 583.5,321.5 583.5,322.5C 582.5,322.5 581.5,322.5 580.5,322.5C 580.863,324.911 579.863,326.411 577.5,327C 570.484,328.679 563.818,331.179 557.5,334.5C 554.553,335.321 551.553,335.821 548.5,336C 549.167,336.333 549.833,336.667 550.5,337C 545.148,337.322 539.814,337.822 534.5,338.5C 523.473,338.425 512.473,338.425 501.5,338.5C 493.321,335.636 484.988,333.303 476.5,331.5C 472.479,328.871 468.146,326.704 463.5,325C 462.624,323.414 461.624,321.914 460.5,320.5C 456.533,319.19 453.7,317.19 452,314.5C 451.621,311.97 450.787,309.637 449.5,307.5C 454.339,306.677 456.673,308.677 456.5,313.5C 463.851,314.615 469.851,318.782 474.5,326C 480.193,326.856 485.859,327.69 491.5,328.5C 491.5,327.5 491.5,326.5 491.5,325.5C 496.5,326.5 498.5,324.5 497.5,319.5C 495.5,319.5 493.5,319.5 491.5,319.5C 491.5,317.5 491.5,315.5 491.5,313.5C 489.5,313.5 487.5,313.5 485.5,313.5C 485.5,312.5 485.5,311.5 485.5,310.5C 483.5,309.833 481.5,309.167 479.5,308.5C 479.591,305.045 479.925,301.878 480.5,299C 479.045,296.984 477.045,296.151 474.5,296.5C 474.468,290.818 474.135,285.152 473.5,279.5C 473.69,276.842 474.357,274.342 475.5,272C 475.355,271.228 475.022,270.561 474.5,270C 477.167,269.333 477.167,268.667 474.5,268C 476.298,266.495 478.132,266.328 480,267.5C 481.029,261.719 482.529,256.052 484.5,250.5C 485.327,254.459 485.827,258.459 486,262.5C 486.333,247.167 486.667,231.833 487,216.5C 487.5,233.497 487.667,250.497 487.5,267.5 Z"/></g>
<g><path style="opacity:1" fill="#9c6665" d="M 486.5,280.5 C 486.833,280.5 487.167,280.5 487.5,280.5C 487.552,284.198 487.886,287.865 488.5,291.5C 487.833,291.5 487.5,291.833 487.5,292.5C 486.517,288.702 486.183,284.702 486.5,280.5 Z"/></g>
<g><path style="opacity:1" fill="#f9f8fb" d="M 554.5,254.5 C 554.5,266.5 554.5,278.5 554.5,290.5C 553.928,299.477 549.262,304.977 540.5,307C 527.843,308.731 515.176,308.897 502.5,307.5C 501.833,307.5 501.5,307.167 501.5,306.5C 496.978,305.411 493.311,303.078 490.5,299.5C 489.833,299.5 489.5,299.167 489.5,298.5C 489.167,296.5 488.833,294.5 488.5,292.5C 488.5,292.167 488.5,291.833 488.5,291.5C 487.886,287.865 487.552,284.198 487.5,280.5C 487.5,279.833 487.5,279.167 487.5,278.5C 487.5,276.5 487.5,274.5 487.5,272.5C 509.318,264.734 531.651,258.734 554.5,254.5 Z"/></g>
<g><path style="opacity:1" fill="#6a2a1f" d="M 453.5,327.5 C 455.027,327.427 456.027,328.094 456.5,329.5C 454.973,329.573 453.973,328.906 453.5,327.5 Z"/></g>
<g><path style="opacity:1" fill="#bf0806" d="M 648.5,250.5 C 649.29,251.609 649.79,252.942 650,254.5C 650.219,253.062 650.719,251.729 651.5,250.5C 652.624,252.369 653.457,254.369 654,256.5C 653.116,281.834 653.449,307.168 655,332.5C 655.397,335.896 657.23,338.063 660.5,339C 668.167,339.667 675.833,339.667 683.5,339C 687.528,338.572 690.695,336.738 693,333.5C 693.333,309.5 693.667,285.5 694,261.5C 694.471,259.754 695.138,258.087 696,256.5C 696.69,255.262 697.19,255.262 697.5,256.5C 697.191,285.198 697.524,313.865 698.5,342.5C 698.5,342.833 698.5,343.167 698.5,343.5C 682.167,343.5 665.833,343.5 649.5,343.5C 648.833,343.5 648.5,343.167 648.5,342.5C 648.5,311.833 648.5,281.167 648.5,250.5 Z"/></g>
<g><path style="opacity:1" fill="#90120d" d="M 484.5,341.5 C 504.819,342.384 525.152,342.718 545.5,342.5C 527.671,343.662 509.671,343.829 491.5,343C 488.964,342.814 486.631,342.314 484.5,341.5 Z"/></g>
<g><path style="opacity:1" fill="#850604" d="M 780.5,341.5 C 798.09,342.486 815.757,342.819 833.5,342.5C 833.833,342.5 834.167,342.5 834.5,342.5C 825.673,343.166 816.673,343.5 807.5,343.5C 798.141,343.498 789.141,342.832 780.5,341.5 Z"/></g>
<g><path style="opacity:1" fill="#fbfbfc" d="M 940.5,475.5 C 941.872,508.179 941.705,540.846 940,573.5C 938.072,588.183 932.239,601.017 922.5,612C 914.477,618.958 905.143,623.125 894.5,624.5C 912.679,677.539 931.346,730.372 950.5,783C 943.434,784.132 936.267,784.632 929,784.5C 922.5,784.333 916,784.167 909.5,784C 890.552,733.324 872.885,682.157 856.5,630.5C 856.44,629.957 856.107,629.624 855.5,629.5C 854.614,630.325 854.281,631.325 854.5,632.5C 854.891,682.83 854.891,733.164 854.5,783.5C 842.213,784.646 829.879,784.813 817.5,784C 817,783.5 816.5,783 816,782.5C 815.172,662.139 815.339,541.806 816.5,421.5C 843.502,421.333 870.502,421.5 897.5,422C 915.829,425.988 928.329,436.822 935,454.5C 937.334,461.509 939.167,468.509 940.5,475.5 Z M 855.5,471.5 C 866.505,471.333 877.505,471.5 888.5,472C 898.444,476.085 902.611,483.585 901,494.5C 901.869,516.857 901.535,539.19 900,561.5C 898.382,568.784 893.882,572.951 886.5,574C 876.172,574.5 865.839,574.666 855.5,574.5C 855.419,540.108 855.419,505.775 855.5,471.5 Z"/></g>
<g><path style="opacity:1" fill="#fcfbfc" d="M 78.5,495.5 C 77.1667,568.167 77.1667,640.833 78.5,713.5C 78.3326,727.565 85.166,734.898 99,735.5C 112.382,736.778 119.715,730.778 121,717.5C 121.511,701.831 122.011,686.164 122.5,670.5C 135.125,670.424 147.625,670.424 160,670.5C 160.368,674.85 160.868,679.183 161.5,683.5C 161.627,699.31 161.127,715.31 160,731.5C 153.009,775.285 127.509,792.785 83.5,784C 65.0276,780.539 52.1943,770.039 45,752.5C 43.021,746.584 41.3543,740.584 40,734.5C 38.8578,690.689 38.3578,646.855 38.5,603C 38.6667,562.167 38.8333,521.333 39,480.5C 44.3599,434.162 70.1933,414.662 116.5,422C 137.748,426.579 151.248,439.413 157,460.5C 158.385,465.761 159.385,471.094 160,476.5C 161.277,495.486 161.611,514.486 161,533.5C 159.902,534.967 158.402,535.801 156.5,536C 145.133,536.767 133.8,536.601 122.5,535.5C 121.847,519.843 121.347,504.176 121,488.5C 119.367,476.2 112.367,470.534 100,471.5C 91.5891,470.295 85.2558,473.295 81,480.5C 79.1053,485.325 78.272,490.325 78.5,495.5 Z"/></g>
<g><path style="opacity:1" fill="#fbfbfc" d="M 187.5,681.5 C 187.5,677.5 187.5,673.5 187.5,669.5C 187.5,638.833 187.5,608.167 187.5,577.5C 187.5,575.5 187.5,573.5 187.5,571.5C 187.5,537.5 187.5,503.5 187.5,469.5C 187.5,469.167 187.5,468.833 187.5,468.5C 187.5,468.167 187.5,467.833 187.5,467.5C 187.5,466.5 187.5,465.5 187.5,464.5C 187.5,456.167 187.5,447.833 187.5,439.5C 187.5,435.5 187.5,431.5 187.5,427.5C 187.261,425.533 187.594,423.699 188.5,422C 226.542,421.173 264.542,421.34 302.5,422.5C 303.833,438.5 303.833,454.5 302.5,470.5C 277.536,471.158 252.536,471.824 227.5,472.5C 226.508,503.79 226.174,535.123 226.5,566.5C 246.5,566.5 266.5,566.5 286.5,566.5C 286.91,582.831 287.244,599.165 287.5,615.5C 267.527,616.452 247.527,616.785 227.5,616.5C 226.518,656.136 226.184,695.803 226.5,735.5C 251.732,735.122 276.899,735.122 302,735.5C 303.368,736.993 303.535,738.493 302.5,740C 303.167,754.333 303.833,768.667 304.5,783C 303.833,783.333 303.167,783.667 302.5,784C 264.5,784.667 226.5,784.667 188.5,784C 187.504,749.906 187.171,715.74 187.5,681.5 Z"/></g>
<g><path style="opacity:1" fill="#fcfcfd" d="M 469.5,439.5 C 469.5,548.833 469.5,658.167 469.5,767.5C 469.198,770.059 469.532,772.393 470.5,774.5C 470.274,777.249 470.607,779.916 471.5,782.5C 470.975,783.192 470.308,783.692 469.5,784C 456.5,784.667 443.5,784.667 430.5,784C 429.54,782.581 428.707,781.081 428,779.5C 408.816,711.136 389.983,642.803 371.5,574.5C 371.5,574.167 371.5,573.833 371.5,573.5C 371.5,573.167 371.5,572.833 371.5,572.5C 371.5,571.833 371.167,571.5 370.5,571.5C 370.5,571.167 370.5,570.833 370.5,570.5C 370.5,569.833 370.167,569.5 369.5,569.5C 369.167,568.167 368.833,568.167 368.5,569.5C 369.627,576.057 369.627,582.557 368.5,589C 369.756,589.417 370.423,590.25 370.5,591.5C 370.833,655.503 370.5,719.503 369.5,783.5C 356.55,784.481 343.55,784.814 330.5,784.5C 330.5,783.167 330.5,781.833 330.5,780.5C 331.483,776.702 331.817,772.702 331.5,768.5C 331.5,654.5 331.5,540.5 331.5,426.5C 331.672,425.508 331.338,424.842 330.5,424.5C 330.881,423.069 331.881,422.236 333.5,422C 339.667,421.833 345.833,421.667 352,421.5C 358.574,421.522 364.907,422.189 371,423.5C 388.406,485.052 405.406,546.718 422,608.5C 424.957,618.994 426.957,629.66 428,640.5C 429.126,636.251 429.792,631.918 430,627.5C 430.333,559.833 430.667,492.167 431,424.5C 443.585,422.531 456.418,421.864 469.5,422.5C 469.5,428.167 469.5,433.833 469.5,439.5 Z"/></g>
<g><path style="opacity:1" fill="#fbfbfc" d="M 591.5,523.5 C 591.594,515.953 590.928,508.62 589.5,501.5C 589.5,497.833 589.5,494.167 589.5,490.5C 589.737,489.209 589.404,488.209 588.5,487.5C 588.077,479.576 584.077,474.409 576.5,472C 569.5,471.333 562.5,471.333 555.5,472C 547.136,474.178 542.636,479.678 542,488.5C 541.804,500.7 541.304,512.866 540.5,525C 541.273,531.129 541.773,537.296 542,543.5C 542.6,550.028 545.433,555.195 550.5,559C 598.362,552.151 624.529,572.651 629,620.5C 629.667,654.833 629.667,689.167 629,723.5C 624.542,773.573 597.375,793.74 547.5,784C 526.919,780.428 513.419,768.595 507,748.5C 503.028,734.288 501.195,719.788 501.5,705C 501.726,694.154 502.226,683.321 503,672.5C 515.25,670.532 527.75,669.865 540.5,670.5C 541.219,686.485 541.719,702.485 542,718.5C 544.531,731.023 552.198,736.69 565,735.5C 569.5,735 574,734.5 578.5,734C 585.558,730.393 588.891,724.559 588.5,716.5C 589.477,713.713 589.81,710.713 589.5,707.5C 590.833,683.5 590.833,659.5 589.5,635.5C 589.5,632.833 589.5,630.167 589.5,627.5C 589.5,626.833 589.167,626.5 588.5,626.5C 588.723,619.445 585.723,614.279 579.5,611C 567.89,609.754 556.224,609.087 544.5,609C 527.249,605.753 515.415,595.92 509,579.5C 505.906,572.125 503.906,564.458 503,556.5C 501.023,529.836 501.023,503.17 503,476.5C 504.764,457.839 512.597,442.339 526.5,430C 531.108,426.863 536.108,424.53 541.5,423C 556.126,421.44 570.792,421.106 585.5,422C 607.36,427.528 620.86,441.362 626,463.5C 627.777,470.047 628.777,476.714 629,483.5C 629.5,496.496 629.667,509.496 629.5,522.5C 616.863,523.421 604.197,523.754 591.5,523.5 Z"/></g>
<g><path style="opacity:1" fill="#fbfbfd" d="M 702.5,421.5 C 715.504,421.333 728.504,421.5 741.5,422C 757.636,425.145 769.47,433.978 777,448.5C 781.379,457.683 784.046,467.35 785,477.5C 786.119,520.319 786.619,563.153 786.5,606C 786.628,647.85 786.128,689.683 785,731.5C 782.86,750.624 774.36,766.124 759.5,778C 754.32,781.378 748.653,783.378 742.5,784C 728.833,784.667 715.167,784.667 701.5,784C 684.496,781.338 672.329,772.172 665,756.5C 661.03,747.924 658.697,738.924 658,729.5C 657.03,642.816 657.363,556.149 659,469.5C 663.353,443.993 677.853,427.993 702.5,421.5 Z M 709.5,471.5 C 717.507,471.334 725.507,471.5 733.5,472C 740.88,474.899 744.714,480.399 745,488.5C 745.667,564.5 745.667,640.5 745,716.5C 744.152,730.505 736.652,736.838 722.5,735.5C 704.174,736.673 695.674,728.007 697,709.5C 696.333,638.167 696.333,566.833 697,495.5C 696.538,487.215 699.038,480.048 704.5,474C 706.315,473.243 707.981,472.41 709.5,471.5 Z"/></g>
<g><path style="opacity:1" fill="#fcfcfd" d="M 964.5,783.5 C 964.5,782.5 964.5,781.5 964.5,780.5C 964.5,763.5 964.5,746.5 964.5,729.5C 964.5,713.5 964.5,697.5 964.5,681.5C 964.5,661.5 964.5,641.5 964.5,621.5C 964.5,574.5 964.5,527.5 964.5,480.5C 964.5,472.5 964.5,464.5 964.5,456.5C 964.34,445.146 964.674,433.813 965.5,422.5C 1003.13,421.346 1040.79,421.179 1078.5,422C 1079.19,423.067 1079.69,424.234 1080,425.5C 1080.5,440.496 1080.67,455.496 1080.5,470.5C 1054.87,471.473 1029.2,471.806 1003.5,471.5C 1003.5,503.167 1003.5,534.833 1003.5,566.5C 1023.5,566.5 1043.5,566.5 1063.5,566.5C 1063.99,582.743 1063.99,598.909 1063.5,615C 1053.4,616.13 1043.24,616.63 1033,616.5C 1023.46,616.488 1013.96,616.154 1004.5,615.5C 1003.5,655.161 1003.17,694.828 1003.5,734.5C 1028.45,735.282 1053.45,735.615 1078.5,735.5C 1079.25,736.376 1079.75,737.376 1080,738.5C 1080.83,753.511 1080.67,768.511 1079.5,783.5C 1041.04,784.83 1002.71,784.83 964.5,783.5 Z"/></g>
<g><path style="opacity:1" fill="#fbfbfc" d="M 1110.5,421.5 C 1136.84,421.333 1163.17,421.5 1189.5,422C 1204.33,425.166 1215.5,433.332 1223,446.5C 1229.25,458.727 1232.58,471.727 1233,485.5C 1233.67,564.5 1233.67,643.5 1233,722.5C 1228.46,773.745 1200.63,794.411 1149.5,784.5C 1136.17,784.333 1122.83,784.167 1109.5,784C 1108.38,783.751 1107.38,783.251 1106.5,782.5C 1107.5,662.54 1107.83,542.54 1107.5,422.5C 1108.79,422.737 1109.79,422.404 1110.5,421.5 Z M 1192.5,717.5 C 1192.57,725.152 1189.24,730.652 1182.5,734C 1176.49,734.424 1170.49,734.924 1164.5,735.5C 1158.85,734.779 1153.19,734.446 1147.5,734.5C 1147.5,646.833 1147.5,559.167 1147.5,471.5C 1158.17,471.333 1168.84,471.5 1179.5,472C 1188.45,474.291 1192.95,480.125 1193,489.5C 1193.83,565.668 1193.67,641.668 1192.5,717.5 Z"/></g>
<g><path style="opacity:1" fill="#423a3c" d="M 940.5,474.5 C 941.833,475.167 941.833,475.167 940.5,474.5 Z"/></g>
<g><path style="opacity:1" fill="#635961" d="M 472.5,431.5 C 471.596,543.501 470.596,655.501 469.5,767.5C 469.5,658.167 469.5,548.833 469.5,439.5C 470.326,435.018 470.826,430.351 471,425.5C 472.319,427.25 472.819,429.25 472.5,431.5 Z"/></g>
<g><path style="opacity:1" fill="#5d5d5e" d="M 588.5,487.5 C 589.404,488.209 589.737,489.209 589.5,490.5C 588.732,491.263 588.232,492.263 588,493.5C 587.51,491.455 587.677,489.455 588.5,487.5 Z"/></g>
<g><path style="opacity:1" fill="#444045" d="M 117.5,484.5 C 118.222,484.918 118.722,485.584 119,486.5C 120.348,496.804 120.681,507.137 120,517.5C 118.707,506.643 117.873,495.643 117.5,484.5 Z"/></g>
<g><path style="opacity:1" fill="#aaafc2" d="M 589.5,501.5 C 590.928,508.62 591.594,515.953 591.5,523.5C 590.414,523.38 589.747,522.713 589.5,521.5C 589.028,519.693 588.694,517.86 588.5,516C 589.285,511.197 589.618,506.363 589.5,501.5 Z"/></g>
<g><path style="opacity:1" fill="#5c5b62" d="M 1192.5,717.5 C 1191.64,640.318 1191.14,562.985 1191,485.5C 1192.48,562.806 1192.98,640.139 1192.5,717.5 Z"/></g>
<g><path style="opacity:1" fill="#574d50" d="M 78.5,495.5 C 78.6688,510.152 79.1688,510.152 80,495.5C 80.6667,566.833 80.6667,638.167 80,709.5C 79.6667,706.167 79.3333,702.833 79,699.5C 78.5008,704.155 78.3342,708.821 78.5,713.5C 77.1667,640.833 77.1667,568.167 78.5,495.5 Z"/></g>
<g><path style="opacity:1" fill="#838da3" d="M 656.5,669.5 C 655.501,611.002 655.168,552.336 655.5,493.5C 655.189,485.772 655.689,478.105 657,470.5C 656.521,536.805 656.354,603.138 656.5,669.5 Z"/></g>
<g><path style="opacity:1" fill="#c8c4c7" d="M 368.5,569.5 C 368.833,569.5 369.167,569.5 369.5,569.5C 370.167,569.5 370.5,569.833 370.5,570.5C 369.167,570.833 369.167,571.167 370.5,571.5C 371.167,571.5 371.5,571.833 371.5,572.5C 370.167,572.833 370.167,573.167 371.5,573.5C 371.5,573.833 371.5,574.167 371.5,574.5C 371.822,580.358 371.489,586.025 370.5,591.5C 370.423,590.25 369.756,589.417 368.5,589C 369.627,582.557 369.627,576.057 368.5,569.5 Z"/></g>
<g><path style="opacity:1" fill="#65696a" d="M 588.5,626.5 C 589.167,626.5 589.5,626.833 589.5,627.5C 588.698,628.952 588.198,630.618 588,632.5C 587.211,630.288 587.378,628.288 588.5,626.5 Z"/></g>
<g><path style="opacity:1" fill="#636d8b" d="M 965.5,422.5 C 964.674,433.813 964.34,445.146 964.5,456.5C 963.167,464.5 963.167,472.5 964.5,480.5C 964.5,527.5 964.5,574.5 964.5,621.5C 963.167,641.5 963.167,661.5 964.5,681.5C 964.5,697.5 964.5,713.5 964.5,729.5C 963.167,746.5 963.167,763.5 964.5,780.5C 964.5,781.5 964.5,782.5 964.5,783.5C 962.742,775.211 961.742,766.544 961.5,757.5C 962.327,646.848 962.827,536.181 963,425.5C 963.236,423.881 964.069,422.881 965.5,422.5 Z"/></g>
<g><path style="opacity:1" fill="#707070" d="M 856.5,630.5 C 855.833,631.167 855.167,631.833 854.5,632.5C 854.281,631.325 854.614,630.325 855.5,629.5C 856.107,629.624 856.44,629.957 856.5,630.5 Z"/></g>
<g><path style="opacity:1" fill="#6a7081" d="M 655.5,493.5 C 655.168,552.336 655.501,611.002 656.5,669.5C 656.667,689.836 656.5,710.169 656,730.5C 655.667,727.833 655.333,725.167 655,722.5C 654.168,645.999 654.334,569.666 655.5,493.5 Z"/></g>
<g><path style="opacity:1" fill="#393744" d="M 856.5,643.5 C 857.496,643.414 858.329,643.748 859,644.5C 861.118,647.554 860.784,650.221 858,652.5C 857.047,649.568 856.547,646.568 856.5,643.5 Z"/></g>
<g><path style="opacity:1" fill="#757b84" d="M 589.5,635.5 C 590.833,659.5 590.833,683.5 589.5,707.5C 588.227,683.443 588.227,659.443 589.5,635.5 Z"/></g>
<g><path style="opacity:1" fill="#626978" d="M 187.5,427.5 C 187.5,431.5 187.5,435.5 187.5,439.5C 186.167,447.833 186.167,456.167 187.5,464.5C 187.5,465.5 187.5,466.5 187.5,467.5C 186.167,467.833 186.167,468.167 187.5,468.5C 187.5,468.833 187.5,469.167 187.5,469.5C 186.167,503.5 186.167,537.5 187.5,571.5C 187.5,573.5 187.5,575.5 187.5,577.5C 186.167,608.167 186.167,638.833 187.5,669.5C 187.5,673.5 187.5,677.5 187.5,681.5C 186.986,715.416 186.153,749.416 185,783.5C 184.333,664.167 184.333,544.833 185,425.5C 185.333,424.833 185.667,424.167 186,423.5C 186.21,425.058 186.71,426.391 187.5,427.5 Z"/></g>
<g><path style="opacity:1" fill="#96adbf" d="M 330.5,424.5 C 331.338,424.842 331.672,425.508 331.5,426.5C 330.167,540.5 330.167,654.5 331.5,768.5C 331.817,772.702 331.483,776.702 330.5,780.5C 329.18,661.775 329.18,543.108 330.5,424.5 Z"/></g>
<g><path style="opacity:1" fill="#716470" d="M 472.5,431.5 C 472.667,547.834 472.5,664.167 472,780.5C 471.809,778.292 471.309,776.292 470.5,774.5C 469.532,772.393 469.198,770.059 469.5,767.5C 470.596,655.501 471.596,543.501 472.5,431.5 Z"/></g>
<g><path style="opacity:1" fill="#40353d" d="M 856.5,698.5 C 858.976,700.121 859.142,702.121 857,704.5C 856.505,702.527 856.338,700.527 856.5,698.5 Z"/></g>
<g><path style="opacity:1" fill="#433f47" d="M 118.5,701.5 C 119.748,702.334 120.415,703.667 120.5,705.5C 119.963,709.829 119.463,714.162 119,718.5C 118.501,712.843 118.334,707.176 118.5,701.5 Z"/></g>
<g><path style="opacity:1" fill="#4a494e" d="M 588.5,716.5 C 587.387,715.054 587.22,713.387 588,711.5C 588.494,713.134 588.66,714.801 588.5,716.5 Z"/></g>
<g><path style="opacity:1" fill="#403f41" d="M 656.5,732.5 C 657.833,733.167 657.833,733.167 656.5,732.5 Z"/></g>
<g><path style="opacity:1" fill="#fafafb" d="M 286.5,1138.5 C 285.602,1139.16 284.602,1139.82 283.5,1140.5C 282.944,1141.66 282.611,1142.66 282.5,1143.5C 172.029,1064.67 95.0292,960.675 51.5,831.5C 67.7442,831.175 83.9109,831.509 100,832.5C 128.358,955.629 190.525,1057.63 286.5,1138.5 Z"/></g>
<g><path style="opacity:1" fill="#fcfcfd" d="M 290.5,831.5 C 314.836,831.333 339.169,831.5 363.5,832C 384.302,881.279 415.302,922.946 456.5,957C 541.956,1020.26 635.289,1034.93 736.5,1001C 798.632,977.015 847.465,936.849 883,880.5C 891.897,864.539 900.397,848.372 908.5,832C 933.164,831.5 957.831,831.333 982.5,831.5C 976.224,941.448 929.891,1029.95 843.5,1097C 760.236,1157.06 667.903,1177.72 566.5,1159C 467.065,1136.24 390.565,1081.74 337,995.5C 307.478,944.736 291.978,890.069 290.5,831.5 Z"/></g>
<g><path style="opacity:1" fill="#fafafb" d="M 990.5,1142.5 C 988.914,1142.31 987.247,1141.97 985.5,1141.5C 986.025,1140.81 986.692,1140.31 987.5,1140C 986.748,1139.33 986.414,1138.5 986.5,1137.5C 1066.38,1070.38 1122.88,987.045 1156,887.5C 1161.54,869.226 1166.87,850.892 1172,832.5C 1188.09,831.509 1204.26,831.175 1220.5,831.5C 1177.43,960.203 1100.77,1063.87 990.5,1142.5 Z"/></g>
<g><path style="opacity:1" fill="#f7f7f7" d="M 208.5,904.5 C 207.596,905.209 207.263,906.209 207.5,907.5C 207.5,908.167 207.5,908.833 207.5,909.5C 203.829,904.367 200.996,898.701 199,892.5C 192.036,872.972 185.536,853.305 179.5,833.5C 186.434,831.409 193.434,831.076 200.5,832.5C 202.113,856.629 204.779,880.629 208.5,904.5 Z"/></g>
<g><path style="opacity:1" fill="#fcfcfd" d="M 467.5,831.5 C 580.5,831.333 693.5,831.5 806.5,832C 807.624,832.249 808.624,832.749 809.5,833.5C 761.423,905.284 694.089,937.117 607.5,929C 544.872,918.033 496.206,886.033 461.5,833C 463.708,832.809 465.708,832.309 467.5,831.5 Z"/></g>
<g><path style="opacity:1" fill="#f6f6f6" d="M 1071.5,831.5 C 1078.21,831.287 1084.88,831.62 1091.5,832.5C 1085.98,854.237 1079.14,875.571 1071,896.5C 1068.17,904.136 1064.33,911.136 1059.5,917.5C 1065.76,889.445 1069.76,860.779 1071.5,831.5 Z"/></g>
<g><path style="opacity:1" fill="#464146" d="M 287.5,834.5 C 288.651,839.65 288.817,844.984 288,850.5C 287.501,845.177 287.334,839.844 287.5,834.5 Z"/></g>
<g><path style="opacity:1" fill="#5a5859" d="M 208.5,904.5 C 209.11,905.391 209.443,906.391 209.5,907.5C 208.833,907.5 208.167,907.5 207.5,907.5C 207.263,906.209 207.596,905.209 208.5,904.5 Z"/></g>
<g><path style="opacity:1" fill="#dcdadc" d="M 209.5,907.5 C 212.217,910.637 213.051,914.304 212,918.5C 210.239,915.589 208.739,912.589 207.5,909.5C 208.5,909.167 209.167,908.5 209.5,907.5 Z"/></g>
<g><path style="opacity:1" fill="#d0cbdb" d="M 286.5,1138.5 C 302.857,1151.2 319.191,1163.86 335.5,1176.5C 316.649,1167.25 298.983,1156.25 282.5,1143.5C 282.611,1142.66 282.944,1141.66 283.5,1140.5C 284.602,1139.82 285.602,1139.16 286.5,1138.5 Z"/></g>
<g><path style="opacity:1" fill="#dcdee9" d="M 986.5,1137.5 C 986.414,1138.5 986.748,1139.33 987.5,1140C 986.692,1140.31 986.025,1140.81 985.5,1141.5C 987.247,1141.97 988.914,1142.31 990.5,1142.5C 973.52,1155.33 955.52,1166.66 936.5,1176.5C 953.143,1163.53 969.809,1150.53 986.5,1137.5 Z"/></g>
<g><path style="opacity:1" fill="#8e878a" d="M 335.5,1176.5 C 337.027,1176.43 338.027,1177.09 338.5,1178.5C 336.973,1178.57 335.973,1177.91 335.5,1176.5 Z"/></g>
<g><path style="opacity:1" fill="#727075" d="M 934.5,1177.5 C 934.842,1176.66 935.508,1176.33 936.5,1176.5C 936.158,1177.34 935.492,1177.67 934.5,1177.5 Z"/></g>
<g><path style="opacity:1" fill="#767579" d="M 934.5,1177.5 C 933.833,1178.17 933.833,1178.17 934.5,1177.5 Z"/></g>
<g><path style="opacity:1" fill="#bcb8bc" d="M 338.5,1178.5 C 339.167,1178.5 339.5,1178.83 339.5,1179.5C 339.167,1179.17 338.833,1178.83 338.5,1178.5 Z"/></g>
<g><path style="opacity:1" fill="#3f3f44" d="M 933.5,1178.5 C 932.833,1179.17 932.833,1179.17 933.5,1178.5 Z"/></g>
<g><path style="opacity:1" fill="#403c40" d="M 339.5,1179.5 C 340.239,1179.37 340.906,1179.54 341.5,1180C 340.563,1180.69 339.897,1180.53 339.5,1179.5 Z"/></g>
</svg>
